<?xml version="1.0" standalone="no"?><!DOCTYPE svg PUBLIC "-//W3C//DTD SVG 1.1//EN" "http://www.w3.org/Graphics/SVG/1.1/DTD/svg11.dtd" ><svg xmlns="http://www.w3.org/2000/svg"><metadata></metadata><defs><font id="2.001;ZYEC;LongCang-Regular" horiz-adv-x="1000"><font-face font-family="Long Cang" font-weight="400" font-stretch="normal" units-per-em="1000" panose-1="0 0 5 0 0 0 0 0 0 0" ascent="880" descent="-120" x-height="0" bbox="-42 -211 1053 811" underline-thickness="50" underline-position="-75" unicode-range="U+0021-ff0c" /><missing-glyph horiz-adv-x="1000"  /><glyph glyph-name="A" unicode="a" d="M324 221 q-27 -8 -46.5 -9.5 q-19.5 -1.5 -47.5 1 q-28 2.5 -46 2.5 q-46 0 -58 -29 l-15 -68 q-7 -36 -40 -50 q-7 26 -7 43.5 q0 17.5 6.5 38.5 q6.5 21 14 36.5 q7.5 15.5 15.5 37.5 q8 22 10 41 q-1 9 8.5 18 q9.5 9 20 15 q10.5 6 11.5 7 q22 16 58.5 71.5 q36.5 55.5 35.5 81.5 q0 9 -5 23 q-5 14 -7 20 q-2 6 5 18 q4 7 34.5 18 q30.5 11 44.5 13 q1 -8 5 -54 q4 -46 11 -57 q22 -40 64 -123 q42 -83 79 -144 q31 -52 31 -88 q-30 5 -50 27 q-10 10 -46 83 q-22 46 -86 27 ZM220 341 q-20 -25 -17.5 -48 q2.5 -23 34.5 -28 q83 -12 134 0 q-13 41 -40.5 85 q-27.5 44 -54.5 65 q-8 -10 -56 -74 Z" /><glyph glyph-name="D" unicode="d" d="M130 91 q-11 -3 -20 -3.5 q-9 -0.5 -14.5 3.5 q-5.5 4 -9 9.5 q-3.5 5.5 -5 14 q-1.5 8.5 -2.5 17.5 q-1 9 0 20.5 q1 11.5 1.5 20.5 q0.5 9 1.5 19.5 q1 10.5 1 17.5 q2 47 -7 79 q-9 32 -28 71 q-3 12 -2.5 18.5 q0.5 6.5 3 18.5 q2.5 12 2.5 18 q2 59 23 62 q11 0 32 -21 q21 -21 34 -18 q2 0 34 6 q32 6 43.5 7 q11.5 1 36.5 3 q25 2 44.5 0 q19.5 -2 37.5 -7 q30 -9 50.5 -41.5 q20.5 -32.5 22 -69.5 q1.5 -37 -17.5 -71 q-35 -50 -108.5 -97 q-73.5 -47 -152.5 -77 ZM305 400 q-30 7 -63.5 4 q-33.5 -3 -60.5 -11.5 q-27 -8.5 -44 -29 q-17 -20.5 -15 -50.5 q1 -7 2.5 -27.5 q1.5 -20.5 2.5 -29 q1 -8.5 2.5 -26.5 q1.5 -18 4 -28.5 q2.5 -10.5 5.5 -23.5 q3 -13 7 -23 q82 39 182 126 q20 17 25 43.5 q5 26.5 -8 48.5 q-13 22 -40 27 Z" /><glyph glyph-name="F" unicode="f" d="M454 353 q17 1 30 -7 q13 -8 13 -21 q0 -22 -34 -28 q-10 -1 -32 -4.5 q-22 -3.5 -28 -4.5 q-6 -1 -21.5 -4 q-15.5 -3 -26.5 -6.5 q-11 -3.5 -29 -8.5 q-18 -5 -40 -12 q-58 -18 -78 -31 q-43 -28 -43 -81 q0 -49 -6 -69 q-32 5 -40 38 q-10 42 -23 57 q-2 2 -7.5 7 q-5.5 5 -6.5 6 q-1 1 -4.5 5 q-3.5 4 -3.5 5.5 q0 1.5 -2 4.5 q-2 3 -1 4.5 q1 1.5 1.5 4.5 q0.5 3 2 5.5 q1.5 2.5 4 6 q2.5 3.5 6.5 7.5 q2 3 7 8 q5 5 6 6.5 q1 1.5 4 5 q3 3.5 3.5 6.5 q0.5 3 2.5 8 q2 5 4 12 q11 47 -20 48 q-20 1 -29 19 q-9 18 7 30 q14 10 22 18 q8 8 15.5 23 q7.5 15 8.5 34 q3 44 27 57 q2 -2 5.5 -4.5 q3.5 -2.5 5 -4.5 q1.5 -2 4.5 -4.5 q3 -2.5 4.5 -5.5 q1.5 -3 3.5 -8 q2 -5 4 -11 l13 -40 q12 4 33.5 13.5 q21.5 9.5 38 17.5 q16.5 8 40 16.5 q23.5 8.5 41 12.5 q17.5 4 40 5 q22.5 1 38.5 -6 q12 -4 21 -20 q-33 -21 -115.5 -48.5 q-82.5 -27.5 -111.5 -41.5 q-56 -27 -41 -92 q46 6 141 37 q95 31 146 35 Z" /><glyph glyph-name="I" unicode="i" d="M190 471 q-18 -8 -35.5 -13.5 q-17.5 -5.5 -37 -7.5 q-19.5 -2 -33.5 6.5 q-14 8.5 -18 28.5 q-2 12 17 24 q19 12 43.5 19.5 q24.5 7.5 39.5 5.5 q12 -1 27.5 8 q15.5 9 27.5 8 q27 -8 38.5 -10.5 q11.5 -2.5 31 -5 q19.5 -2.5 46.5 -2.5 q31 0 44 -9.5 q13 -9.5 22 -36.5 q-7 -1 -80 -2 q-70 -2 -70 -45 q1 -35 -3.5 -146 q-4.5 -111 -4.5 -115 q0 -20 10 -31.5 q10 -11.5 29.5 -14 q19.5 -2.5 37.5 -1.5 q18 1 43.5 4.5 q25.5 3.5 37.5 3.5 q-14 -18 -39 -29.5 q-25 -11.5 -47.5 -16.5 q-22.5 -5 -60.5 -12 q-38 -7 -58 -12 q-77 -19 -116 -27 q-13 -2 -20 9 q-7 11 -8 26 q0 15 18 21 q18 6 47.5 6.5 q29.5 0.5 38.5 2.5 q34 9 34 68 q0 2 0 6 q0 4 0 9 q0 5 -0.5 10 q-0.5 5 -1 10.5 q-0.5 5.5 -0.5 10 q0 4.5 -0.5 8.5 q-0.5 4 -0.5 7.5 q0 3.5 0 4.5 l0 2 q0 8 9 86.5 q9 78.5 2 106.5 q-7 27 -10 35 Z" /><glyph glyph-name="J" unicode="j" d="M133 456 q0 10 5 15.5 q5 5.5 13.5 6 q8.5 0.5 17 -1 q8.5 -1.5 19.5 -3.5 q11 -2 17 -2 q3 0 17 -0.5 q14 -0.5 22.5 0 q8.5 0.5 20 1 q11.5 0.5 19 2 q7.5 1.5 10.5 4.5 q5 5 5.5 30.5 q0.5 25.5 -3.5 38.5 q0 19 19 19 q14 -1 22 -13 q8 -12 11 -26.5 q3 -14.5 10.5 -28 q7.5 -13.5 20.5 -16.5 q13 -3 82 -3 q23 0 38.5 -5.5 q15.5 -5.5 14.5 -20.5 q-1 -13 -7.5 -21 q-6.5 -8 -19.5 -10 q-13 -2 -25 -2 q-12 0 -30 2 q-18 2 -27.5 2 q-9.5 0 -16 -3 q-6.5 -3 -10 -5.5 q-3.5 -2.5 -5 -10.5 q-1.5 -8 -2 -11.5 q-0.5 -3.5 -0.5 -16 q0 -12.5 0 -16.5 q-1 -103 -10.5 -163 q-9.5 -60 -42.5 -109 q-45 -66 -99.5 -67.5 q-54.5 -1.5 -106.5 62.5 q-49 61 -57 110 q17 -8 38.5 -28.5 q21.5 -20.5 38 -39.5 q16.5 -19 38.5 -33.5 q22 -14.5 42 -14.5 q18 0 30.5 9 q12.5 9 25.5 28 q57 78 56 261 q0 18 -8.5 28 q-8.5 10 -25 12 q-16.5 2 -31.5 1.5 q-15 -0.5 -38 -2.5 q-23 -2 -35 -2 q-53 0 -53 43 Z" /><glyph glyph-name="M" unicode="m" d="M483 542 l0 16 q12 18 26 18 q14 -3 23 -15.5 q9 -12.5 11 -29 q2 -16.5 3 -36.5 q1 -20 -0.5 -40.5 q-1.5 -20.5 -0.5 -39.5 q-2 -15 15 -136 q17 -121 17 -156 q0 -16 -7.5 -26 q-7.5 -10 -20.5 -11 q-26 0 -35 36 q-5 19 -9 112.5 q-4 93.5 -5 103.5 q-9 65 -26 101 q-84 -90 -128 -206 q-2 -4 -7 -27.5 q-5 -23.5 -12.5 -35 q-7.5 -11.5 -22.5 -10.5 q-11 -4 -44.5 23 q-33.5 27 -64.5 55.5 q-31 28.5 -37 26.5 l-17 -64 q-10 -35 -30 -54 q-10 19 -11 44 q-1 25 4.5 65.5 q5.5 40.5 6.5 48.5 q1 19 -27.5 61.5 q-28.5 42.5 -27.5 57.5 q6 0 26 3.5 q20 3.5 21 3.5 q-2 30 -1 36.5 q1 6.5 9 34.5 q26 -17 33 -35.5 q7 -18.5 13 -74.5 q6 -48 39.5 -89 q33.5 -41 80.5 -70 l206 309 Z" /><glyph glyph-name="S" unicode="s" d="M114 87 q-23 -7 -39.5 0.5 q-16.5 7.5 -16.5 27.5 q0 7 5 12 q5 5 14.5 8 q9.5 3 18.5 5 q9 2 20.5 4 q11.5 2 17.5 3 q60 16 115 62 q55 46 90 104 q-37 7 -77.5 -3.5 q-40.5 -10.5 -83.5 -27.5 q-43 -17 -73 -19 q-18 -1 -29 10.5 q-11 11.5 -11 28.5 q0 40 60 90 l117 100 q52 44 84 44 q23 0 29 -25 q-115 -49 -213 -175 q15 -2 102.5 14.5 q87.5 16.5 101.5 14.5 q15 -1 22 -2 q7 -1 16 -4 q9 -3 12.5 -9 q3.5 -6 4.5 -17 q0 -16 -15 -44 q-37 -68 -110.5 -121.5 q-73.5 -53.5 -161.5 -80.5 Z" /><glyph glyph-name="T" unicode="t" d="M264 511 q30 -15 46.5 -17.5 q16.5 -2.5 58.5 2.5 q28 4 43 4 q15 0 30 -8 q12 -6 12 -29 q-29 0 -103 -16 q-14 -3 -22.5 -13 q-8.5 -10 -10 -27 q-1.5 -17 -1.5 -32 q0 -15 2 -36.5 q2 -21.5 2 -32.5 q0 -29 -4 -81 q-4 -52 -4 -80 q0 -46 -7 -58 q-6 -14 -23 -15 q-17 -1 -27 19 q-10 20 -8 40 q1 10 8 59 q7 49 10 81.5 q3 32.5 3 66.5 q0 20 -1 33.5 q-1 13.5 -5.5 28.5 q-4.5 15 -11.5 24 q-7 9 -19.5 15 q-12.5 6 -29.5 6 q-13 0 -46.5 -5.5 q-33.5 -5.5 -59 -5 q-25.5 0.5 -39.5 11.5 q-18 15 -22 49 q40 9 78 4.5 q38 -4.5 83 -4 q45 0.5 68 15.5 Z" /><glyph glyph-name="Y" unicode="y" d="M15 479 q17 7 36 6 q19 -1 30 -16 q42 -61 69 -87 l54 -53 q25 23 72 66.5 q47 43.5 71 67.5 q13 12 30.5 31.5 q17.5 19.5 26 27.5 q8.5 8 24.5 19 q16 11 37 20 q4 1 15 -10.5 q11 -11.5 9 -18.5 q0 -7 -4.5 -14.5 q-4.5 -7.5 -12.5 -16 q-8 -8.5 -15 -14.5 q-7 -6 -18 -14.5 q-11 -8.5 -13 -9.5 q-12 -15 -43 -43 q-31 -28 -55 -51 q-24 -23 -43 -58 q-19 -35 -17 -69 q7 -112 -1 -144 q-7 -27 -23 -30 q-12 -1 -20.5 8.5 q-8.5 9.5 -13.5 30.5 q-6 27 -6 103 q0 28 -12.5 53.5 q-12.5 25.5 -32 45 q-19.5 19.5 -43.5 40.5 q-24 21 -44.5 39 q-20.5 18 -36.5 42 q-16 24 -20 49 Z" /><glyph glyph-name="a" unicode="a" d="M395 281 q1 31 -6 57 q-7 26 -26 40.5 q-19 14.5 -46 5.5 q-79 -27 -134 -84 q-18 -17 -32.5 -6.5 q-14.5 10.5 -14.5 32.5 q0 17 18.5 33.5 q18.5 16.5 39.5 27 q21 10.5 51 24 q30 13.5 40 18.5 q24 14 36.5 19 q12.5 5 28 5.5 q15.5 0.5 32.5 -7.5 q12 -5 21 -22 q56 -100 56 -191 q0 -10 19.5 -57.5 q19.5 -47.5 19.5 -60.5 q0 -15 -8.5 -31 q-8.5 -16 -20.5 -16 q-15 1 -25 9.5 q-10 8.5 -14.5 18 q-4.5 9.5 -10.5 27.5 q-14 -5 -47 -19 q-33 -14 -51.5 -20.5 q-18.5 -6.5 -46 -16 q-27.5 -9.5 -51 -13.5 q-23.5 -4 -46.5 -4 q-77 0 -106 57 q-5 16 -5.5 28.5 q-0.5 12.5 9 26 q9.5 13.5 19.5 23 q10 9.5 25.5 19.5 q15.5 10 28 17 q12.5 7 26.5 12 q70 32 200 45 q14 2 21 3 ZM126 123 q41 -11 79 -11.5 q38 -0.5 77.5 10.5 q39.5 11 70.5 24.5 q31 13.5 58 31.5 q-22 33 -68.5 42.5 q-46.5 9.5 -92 -2 q-45.5 -11.5 -82.5 -37.5 q-37 -26 -42 -58 Z" /><glyph glyph-name="b" unicode="b" d="M110 455 q0 9 -1 27.5 q-1 18.5 -1.5 32 q-0.5 13.5 1 28 q1.5 14.5 7.5 22.5 q6 8 18 8 q41 0 38 -62 q-1 -34 -14 -107 q-13 -73 -9 -115 q27 5 105 42 q78 37 85 37 q7 2 27 7 q20 5 28 7 q8 2 24.5 4.5 q16.5 2.5 27.5 2 q11 -0.5 24 -2.5 q13 -2 26 -8 q14 -6 16 -31 q2 -25 -7 -42 q-10 -26 -34 -51.5 q-24 -25.5 -60 -49 q-36 -23.5 -59 -36.5 q-23 -13 -59 -31 q-26 -13 -52 -21.5 q-26 -8.5 -63.5 -18 q-37.5 -9.5 -54.5 -13.5 q-14 2 -20.5 13.5 q-6.5 11.5 -8.5 33.5 l8 8 q-2 4 -17 18 q-15 14 -15 29 q0 7 13 41.5 q13 34.5 11 45.5 q-2 13 7 89 q9 76 9 93 ZM425 333 q-24 0 -36.5 -2 q-12.5 -2 -19.5 -4.5 q-7 -2.5 -29 -11.5 q-22 -9 -48 -18 q-24 -9 -47 -21 q-23 -12 -45 -30 q-22 -18 -34 -42 q-12 -24 -8 -49 q97 16 175 61.5 q78 45.5 125 112.5 q-17 4 -33 4 Z" /><glyph glyph-name="c" unicode="c" d="M128 139 q39 -5 80.5 5.5 q41.5 10.5 101.5 36 q60 25.5 71 29.5 q6 0 22.5 10.5 q16.5 10.5 32 20.5 q15.5 10 34 15 q18.5 5 28.5 -6 q11 -11 17 -24 q-22 -12 -53 -29 q-31 -17 -42.5 -23.5 q-11.5 -6.5 -32 -17 q-20.5 -10.5 -39.5 -19 q-19 -8.5 -45 -19.5 q-91 -38 -184 -46 q-26 -3 -38 14.5 q-12 17.5 -11 45.5 q2 37 21.5 75.5 q19.5 38.5 50.5 70.5 q31 32 63 57 q32 25 65 44 q26 16 45.5 7 q19.5 -9 19.5 -38 q0 -13 -10 -23 q-10 -10 -22 -15 q-12 -5 -31 -11.5 q-19 -6.5 -26 -9.5 q-35 -15 -73.5 -63 q-38.5 -48 -44.5 -87 Z" /><glyph glyph-name="d" unicode="d" d="M433 5 q-17 4 -28.5 18 q-11.5 14 -16 36 q-4.5 22 -5.5 42 q-1 20 -2 48.5 q-1 28.5 -3 44.5 q-11 -6 -68.5 -39 q-57.5 -33 -89.5 -48 q-58 -27 -103 -29 q-25 -1 -48 16.5 q-23 17.5 -24 39.5 q0 34 56 69 q21 13 62.5 40.5 q41.5 27.5 60.5 39 q19 11.5 51 27.5 q32 16 64 26 q38 14 48.5 33 q10.5 19 6.5 70 q0 4 -0.5 16.5 q-0.5 12.5 -1 19.5 q-0.5 7 -0.5 18.5 q0 11.5 1.5 18.5 q1.5 7 4 14.5 q2.5 7.5 8 11 q5.5 3.5 12.5 4.5 q14 1 21.5 -5.5 q7.5 -6.5 8.5 -20.5 q1 -14 0.5 -24 q-0.5 -10 -3.5 -29.5 q-3 -19.5 -3 -23.5 q-6 -53 -6.5 -119 q-0.5 -66 1.5 -151 q2 -85 2 -121 q0 -23 -6 -43 ZM110 139 q29 -5 59 3 q30 8 73.5 29 q43.5 21 48.5 23 q7 3 22.5 8 q15.5 5 25.5 8.5 q10 3.5 21 10.5 q11 7 17 16.5 q6 9.5 6 22.5 q0 14 -5 29 q-129 -25 -268 -150 Z" /><glyph glyph-name="e" unicode="e" d="M269 338 q33 19 70.5 24.5 q37.5 5.5 65.5 -9.5 q28 -15 28 -51 q0 -28 -26.5 -54.5 q-26.5 -26.5 -57.5 -37.5 q-17 -7 -41.5 -14.5 q-24.5 -7.5 -37 -11.5 q-12.5 -4 -28 -14 q-15.5 -10 -27.5 -23 q43 -11 94.5 -1.5 q51.5 9.5 88.5 25.5 q37 16 87.5 31.5 q50.5 15.5 92.5 15.5 q-6 -27 -30 -42 q-11 -7 -44 -21 q-33 -14 -89 -35.5 q-56 -21.5 -59 -22.5 q-31 -13 -63 -18.5 q-32 -5.5 -64 -1 q-32 4.5 -53 22.5 q-4 2 -16 15 q-12 13 -20 14 q-7 0 -32.5 -6.5 q-25.5 -6.5 -36.5 -7.5 q-15 -1 -23 10 q-8 11 -8 25 q0 12 9 16.5 q9 4.5 20.5 4 q11.5 -0.5 26 0 q14.5 0.5 23.5 5.5 q25 7 32 15.5 q7 8.5 20 42.5 q5 15 10.5 26.5 q5.5 11.5 14 21.5 q8.5 10 12.5 15 q4 5 18 14 q14 9 18.5 12 q4.5 3 24.5 15 ZM223 226 q36 -2 68 10 q32 12 51 27 q19 15 47 42 q-55 7 -98 -16 q-43 -23 -68 -63 Z" /><glyph glyph-name="h" unicode="h" d="M79 338 q1 27 -3.5 63 q-4.5 36 -10 62.5 q-5.5 26.5 -5.5 55.5 q0 29 10 47 q2 2 5.5 0 q3.5 -2 4 -2 q0.5 0 3.5 -3 l3 -3 q12 -11 20 -28 q8 -17 11 -44.5 q3 -27.5 3.5 -43.5 q0.5 -16 0 -54.5 q-0.5 -38.5 -0.5 -47.5 q0 -12 5 -35 q3 3 20 16.5 q17 13.5 22.5 17.5 q5.5 4 20.5 15 q15 11 22.5 15.5 q7.5 4.5 21.5 12.5 q14 8 23.5 11 q9.5 3 22 6 q12.5 3 23.5 3 q53 0 53 -82 q0 -37 5.5 -102.5 q5.5 -65.5 5.5 -73.5 q0 -8 7.5 -15.5 q7.5 -7.5 15.5 -10.5 q6 7 14 5 q6 -1 18.5 -4 q12.5 -3 16 -3.5 q3.5 -0.5 11 -3 q7.5 -2.5 9 -5 q1.5 -2.5 5.5 -7 q4 -4.5 6 -10 q2 -5.5 5 -14.5 l-103 -25 q-26 1 -41 16.5 q-15 15.5 -18 39 q-3 23.5 -3.5 53 q-0.5 29.5 2 59 q2.5 29.5 0.5 56.5 q-1 13 -2.5 21.5 q-1.5 8.5 -3.5 18.5 q-2 10 -6 15 q-4 5 -10 9 q-6 4 -15 3 q-9 -1 -22 -6 q-33 -12 -68.5 -51 q-35.5 -39 -49.5 -75 q-7 -19 -11 -69 q-4 -52 -36 -65 q-16 33 -19 73 q-3 40 4.5 106.5 q7.5 66.5 7.5 82.5 Z" /><glyph glyph-name="i" unicode="i" d="M74 597 q14 4 24.5 -12.5 q10.5 -16.5 9 -36.5 q-1.5 -20 -18.5 -22 q-21 -3 -28.5 17 q-7.5 20 -2.5 46 q1 6 4.5 7 q3.5 1 11.5 1 ZM66 76 q-8 15 -9.5 35 q-1.5 20 1.5 36.5 q3 16.5 5.5 41.5 q2.5 25 2.5 44 q-1 16 8 62 q9 46 8 49 q0 3 -1.5 19 q-1.5 16 -2 24.5 q-0.5 8.5 0 20.5 q0.5 12 4.5 19.5 q4 7.5 11 9.5 q15 -2 29 -24.5 q14 -22.5 11 -45.5 q2 -8 -3 -38 q-5 -30 -11.5 -58.5 q-6.5 -28.5 -6.5 -28.5 q0 -9 -1 -27 q-1 -18 -2 -30 q-1 -12 -3 -29.5 q-2 -17.5 -5.5 -29.5 q-3.5 -12 -8 -23.5 q-4.5 -11.5 -11.5 -18 q-7 -6.5 -16 -8.5 Z" /><glyph glyph-name="k" unicode="k" d="M97 360 q-6 146 -27 231 q1 33 25 46 l3 -4 q3 -3 5.5 -4 q2.5 -1 7.5 0 q12 -5 21 -25 q9 -20 10 -38 q3 -42 8 -126.5 q5 -84.5 8 -126.5 q11 6 17.5 9.5 q6.5 3.5 12.5 7 q6 3.5 11 7.5 q5 4 9 6.5 q4 2.5 11.5 9.5 q7.5 7 12 11 q4.5 4 17 16 q12.5 12 20.5 20 q8 8 18.5 22 q10.5 14 19.5 23 q9 9 21 12 q7 2 13.5 -9.5 q6.5 -11.5 7.5 -25.5 q1 -6 -2.5 -13 q-3.5 -7 -7 -12.5 q-3.5 -5.5 -11.5 -13 q-8 -7.5 -12.5 -11.5 q-4.5 -4 -12.5 -11 q-8 -7 -10 -9 q-26 -21 -45.5 -38.5 q-19.5 -17.5 -26 -23.5 q-6.5 -6 -19 -15.5 q-12.5 -9.5 -36.5 -25.5 q40 -23 141.5 -58.5 q101.5 -35.5 134.5 -51.5 q15 -7 22 -20.5 q7 -13.5 1 -24 q-6 -10.5 -24 -12.5 q-6 -1 -15.5 2 q-9.5 3 -23 9 q-13.5 6 -15.5 7 q-5 2 -30 12 q-25 10 -45.5 17.5 q-20.5 7.5 -46 17 q-25.5 9.5 -46 14.5 q-20.5 5 -32.5 5 q-18 0 -37 -4 q12 -46 -8 -78 q-39 16 -48 52 q-15 64 -19 99 q2 11 9 36 q7 25 10.5 46 q3.5 21 2.5 43 Z" /><glyph glyph-name="l" unicode="l" d="M69 557 q-17 44 11 72 q17 1 26 -6.5 q9 -7.5 17 -28.5 q12 -34 12 -108 q0 -77 6.5 -184 q6.5 -107 6.5 -152 q0 -52 -13 -82 q-27 12 -38 48 q-11 36 -10 71.5 q1 35.5 5 90 q4 54.5 4 79.5 q0 13 -0.5 42.5 q-0.5 29.5 -1 37.5 q-0.5 8 -2 27 q-1.5 19 -4.5 29.5 q-3 10.5 -7.5 27 q-4.5 16.5 -11.5 36.5 Z" /><glyph glyph-name="m" unicode="m" d="M50 210 q47 58 39 150 q0 3 -4 28 q-4 25 -4 30 q0 1 0.5 4 q0.5 3 0.5 4 q0 1 0.5 4 q0.5 3 0.5 3.5 q0 0.5 1 2.5 q1 2 1.5 3 q0.5 1 1.5 2 q1 1 2.5 1.5 q1.5 0.5 3.5 0.5 q2 0 4 0 q14 0 23 -7.5 q9 -7.5 13.5 -18.5 q4.5 -11 5.5 -28.5 q1 -17.5 0.5 -32 q-0.5 -14.5 -2 -35 q-1.5 -20.5 -1.5 -32.5 q23 8 53.5 33 q30.5 25 54.5 44.5 q24 19.5 36 17.5 q14 -1 25.5 -17 q11.5 -16 16 -32.5 q4.5 -16.5 11 -42.5 q6.5 -26 9.5 -35 q5 7 19.5 25.5 q14.5 18.5 21.5 27 q7 8.5 20.5 17.5 q13.5 9 26.5 12 q27 -7 36.5 -30.5 q9.5 -23.5 9.5 -66.5 q0 -48 10.5 -67 q10.5 -19 45.5 -20 q59 -2 74 -7 q14 -4 36 -17 q-5 -2 -32 -14 q-27 -12 -40.5 -17 q-13.5 -5 -36 -10.5 q-22.5 -5.5 -41 -5.5 q-18.5 0 -32 11 q-13.5 11 -20.5 31.5 q-7 20.5 -11.5 39.5 q-4.5 19 -8.5 45 q-4 26 -7 38 q-14 -16 -49.5 -91.5 q-35.5 -75.5 -45.5 -89.5 q-20 14 -26 24 q-6 10 -6 33 q0 52 -0.5 74 q-0.5 22 -4 57.5 q-3.5 35.5 -10.5 63.5 q-29 -22 -65 -54.5 q-36 -32.5 -54 -47.5 q-10 -9 -16 -24.5 q-6 -15.5 -6.5 -33 q-0.5 -17.5 -0.5 -38 q0 -20.5 0 -38.5 q-44 5 -51 48 q-11 60 -28 78 Z" /><glyph glyph-name="n" unicode="n" d="M87 447 q4 -6 11.5 -17.5 q7.5 -11.5 10.5 -16.5 q3 -5 6 -15 q3 -10 3 -22 q0 -7 0.5 -19.5 q0.5 -12.5 0.5 -18 q0 -5.5 1 -15 q1 -9.5 2.5 -17.5 q1.5 -8 3.5 -17 q2 1 27 29 q25 28 43 41 q18 13 34 13 q11 0 18.5 -5.5 q7.5 -5.5 10.5 -10.5 q3 -5 10 -20 q7 -14 16.5 -82.5 q9.5 -68.5 14.5 -81.5 q4 -27 103 -41 q-5 -24 -33 -39 q-28 -15 -61 -11.5 q-33 3.5 -48 26.5 q-18 28 -23 67 q-12 112 -17 123 q-109 -76 -111 -229 q-21 2 -32.5 16 q-11.5 14 -13.5 36.5 q-2 22.5 -1 44 q1 21.5 4.5 50 q3.5 28.5 3.5 42.5 q0 23 -6.5 71 q-6.5 48 -2.5 74.5 q4 26.5 25 44.5 Z" /><glyph glyph-name="o" unicode="o" d="M135 95 q-33 -22 -54 -10.5 q-21 11.5 -21 56.5 q0 58 68 143.5 q68 85.5 121 115.5 q28 15 38 17.5 q10 2.5 41 -2.5 q62 -8 60 -83 q-2 -40 -20 -75.5 q-18 -35.5 -49 -61.5 q-31 -26 -65.5 -45.5 q-34.5 -19.5 -75.5 -34.5 q0 0 -6.5 -2.5 q-6.5 -2.5 -16 -7 q-9.5 -4.5 -20.5 -10.5 ZM107 147 q42 -3 99.5 25 q57.5 28 99.5 73 q42 45 38 84 q-2 18 -6.5 26.5 q-4.5 8.5 -17.5 8.5 q-14 0 -31.5 -10 q-17.5 -10 -42.5 -28 q-25 -18 -29 -21 q-29 -19 -64 -69.5 q-35 -50.5 -46 -88.5 Z" /><glyph glyph-name="p" unicode="p" d="M59 -121 q-7 27 -8.5 66.5 q-1.5 39.5 0.5 74.5 q2 35 5 79.5 q3 44.5 3 71.5 q0 14 9 62 q9 48 6 70 q-6 46 -3 68 q3 22 20 53 q14 -9 22 -28.5 q8 -19.5 10 -37.5 q2 -18 3.5 -48 q1.5 -30 3.5 -45 q26 9 86 36.5 q60 27.5 112.5 43.5 q52.5 16 101.5 15 q2 -4 5.5 -6.5 q3.5 -2.5 9.5 -5 q6 -2.5 9 -4.5 q7 -14 7.5 -26 q0.5 -12 -4.5 -24.5 q-5 -12.5 -13 -23 q-8 -10.5 -23 -25.5 q-10 -12 -21.5 -21.5 q-11.5 -9.5 -19 -16.5 q-7.5 -7 -21.5 -14.5 q-14 -7.5 -20 -10.5 q-6 -3 -26 -9.5 q-20 -6.5 -25.5 -9 q-5.5 -2.5 -33.5 -11 q-28 -8.5 -37 -10.5 l-87 -27 q-23 -8 -30.5 -36.5 q-7.5 -28.5 -4.5 -55.5 q3 -27 11 -57 l8 0 q2 -12 2 -13 q0 1 -1 3 q-1 2 -2 4.5 q-1 2.5 -2 4.5 q-1 2 -1.5 2.5 q-0.5 0.5 -0.5 0.5 q-3 -3 -3.5 -22.5 q-0.5 -19.5 -3.5 -26.5 l-11 -40 q-13 2 -32 0 ZM130 178 q48 -10 106 8 q58 18 102 51.5 q44 33.5 60 67.5 q-48 8 -104 -11.5 q-56 -19.5 -98.5 -51 q-42.5 -31.5 -65.5 -64.5 Z" /><glyph glyph-name="r" unicode="r" d="M119 76 q-30 4 -47.5 30.5 q-17.5 26.5 -20 65.5 q-2.5 39 0.5 76 q3 37 12 72 q0 6 5 62 q6 57 34 57 q8 0 14 -2 q6 -2 9.5 -7 q3.5 -5 6 -9 q2.5 -4 2.5 -11.5 q0 -7.5 0.5 -12.5 q0.5 -5 -1 -14.5 q-1.5 -9.5 -2 -13.5 q-0.5 -4 -2.5 -13.5 q-2 -9.5 -3 -11.5 q24 -6 87.5 -2 q63.5 4 86.5 -5 q22 -7 39 -24 q-15 -10 -51 -16.5 q-36 -6.5 -68 -9 q-32 -2.5 -60 -14.5 q-28 -12 -33 -34 q-5 -23 -5 -82 q0 -59 -4 -81 Z" /><glyph glyph-name="s" unicode="s" d="M95 249 q36 -5 57.5 -5 q21.5 0 64 3 q42.5 3 62.5 3 q44 0 63.5 -15 q19.5 -15 5.5 -49 q-8 -17 -27 -33 q-19 -16 -37.5 -25 q-18.5 -9 -48 -22 q-29.5 -13 -42.5 -20 q-21 -11 -37 -11.5 q-16 -0.5 -37 9.5 q2 7 10.5 17 q8.5 10 21 20 q12.5 10 27 20.5 q14.5 10.5 28.5 19.5 q14 9 25 16 q11 7 17 12 q6 5 5 5 q-17 4 -84.5 -5 q-67.5 -9 -77.5 -9 q-41 0 -59.5 17.5 q-18.5 17.5 -7.5 51.5 q9 31 41 59 q3 4 63 41 q60 37 96 57 q21 12 34.5 17 q13.5 5 28.5 4 q15 -1 29 -12 q23 -17 18 -32 q-5 -15 -37 -23 q-111 -31 -202 -111 Z" /><glyph glyph-name="t" unicode="t" d="M134 80 q-52 2 -52 59 q0 14 2 51.5 q2 37.5 1.5 66.5 q-0.5 29 -3.5 46 q-3 13 -24 36.5 q-21 23.5 -18 36.5 q2 7 17.5 16.5 q15.5 9.5 15.5 22.5 q4 20 -3.5 70.5 q-7.5 50.5 1.5 63.5 q5 9 19 9 q31 0 37 -63 q4 -64 10 -71 q6 -8 20 -13 q14 -5 37 -8 q23 -3 38.5 -5 q15.5 -2 44.5 -4 q29 -2 35 -2 q-95 -28 -111 -32 q-44 -9 -53 -16 q-18 -13 -18 -47 q0 -55 4.5 -89.5 q4.5 -34.5 18.5 -68.5 q14 4 26 7.5 q12 3.5 16.5 5 q4.5 1.5 13 2.5 q8.5 1 23.5 1 q-4 -28 -35 -51.5 q-31 -23.5 -63 -23.5 Z" /><glyph glyph-name="u" unicode="u" d="M113 374 q-15 -158 1 -227 q42 3 92.5 36.5 q50.5 33.5 65.5 65.5 q11 16 16.5 83.5 q5.5 67.5 15.5 82.5 q31 -11 39.5 -42 q8.5 -31 7.5 -92 q0 -8 4 -35.5 q4 -27.5 4 -35.5 q-2 -16 5.5 -26.5 q7.5 -10.5 22.5 -17.5 q15 -7 28 -10.5 q13 -3.5 31 -7.5 q5 0 7 -1 q-15 -15 -25 -23.5 q-10 -8.5 -27 -16 q-17 -7.5 -35 -7.5 q-41 0 -58 36 q-9 17 -20 42 q-120 -95 -181 -98 q-13 0 -22.5 5 q-9.5 5 -14.5 13 q-5 8 -8 22 q-3 14 -3 26 q0 12 0 30 q2 90 -9 212 q-1 19 7.5 38 q8.5 19 22.5 21 q13 1 24 -26 q11 -27 9 -47 Z" /><glyph glyph-name="v" unicode="v" d="M336 455 q44 -28 25 -71 q-13 -27 -37 -86 q-24 -59 -45 -100 q-8 -14 -13 -32 q-5 -18 -8.5 -40 q-3.5 -22 -5.5 -31 q-7 -29 -30 -18 q-19 9 -27 30 q-2 5 -3 9 q-1 13 -6.5 28 q-5.5 15 -11 25 q-5.5 10 -14 25.5 q-8.5 15.5 -12.5 22.5 q-2 6 -8.5 15 q-6.5 9 -17.5 25.5 q-11 16.5 -19 30.5 q-35 54 -45.5 80.5 q-10.5 26.5 -5.5 62.5 q38 -7 67 -52 q4 -5 44 -92 q29 -59 55 -77 q6 12 32.5 72.5 q26.5 60.5 48 103.5 q21.5 43 37.5 69 Z" /><glyph glyph-name="y" unicode="y" d="M35 352 q32 0 62 -26.5 q30 -26.5 48 -59.5 q18 -33 41.5 -72 q23.5 -39 38.5 -55 q24 41 72 155 q48 114 62 145 q3 -4 11.5 -11 q8.5 -7 12.5 -14.5 q4 -7.5 4 -18.5 q0 -18 -10.5 -44.5 q-10.5 -26.5 -27.5 -59 q-17 -32.5 -21 -42.5 q-11 -24 -42 -98.5 q-31 -74.5 -53 -124 q-22 -49.5 -39 -77.5 q-26 -42 -64 -62 q-11 18 -5 41.5 q6 23.5 20.5 44 q14.5 20.5 29.5 45 q15 24.5 22 45.5 q7 21 -3 44 q-5 20 -71 104 q-18 22 -16 22 q-1 6 -21.5 28 q-20.5 22 -37.5 48 q-17 26 -13 43 Z" /><glyph glyph-name="uni4E00" unicode="&#x4e00;" d="M541 362 q59 5 64 5.5 q5 0.5 95 -6.5 q90 -7 115 -7 q19 0 51.5 -10 q32.5 -10 41.5 -18 q7 -7 2.5 -23 q-4.5 -16 -15.5 -20 q-22 -9 -57 8 q-14 7 -24 3 q-11 -7 -21 -6.5 q-10 0.5 -13 7.5 q-4 10 -83.5 9.5 q-79.5 -0.5 -114.5 -10.5 q-10 -3 -18.5 -5 q-8.5 -2 -12.5 -3 q-4 -1 -4 1 q0 3 -14 -6.5 q-14 -9.5 -37 -13.5 q-108 -18 -151 -29 q-18 -4 -63 -7 q-41 -3 -66 3.5 q-25 6.5 -54 25.5 q-27 18 -51 28 q-18 7 -21.5 14 q-3.5 7 4.5 17 q17 21 84 10 q28 -4 48 0 q39 8 140 18.5 q101 10.5 175 14.5 Z" /><glyph glyph-name="uni4E94" unicode="&#x4e94;" d="M549 450 q0 15 46 -3 q50 -21 50 -39 q0 -6 -7.5 -8.5 q-7.5 -2.5 -7.5 -12 q0 -9.5 -20 -25.5 q-23 -19 -20.5 -25 q2.5 -6 34.5 -3 q34 2 63.5 -7.5 q29.5 -9.5 36.5 -15.5 q8 -7 8 -21.5 q0 -14.5 -8 -28.5 q-24 -37 -31 -53 q-7 -14 -30 -56 q-23 -42 -23 -44.5 q0 -2.5 40 -2.5 q66 0 112 -23 q14 -7 62 -12 q42 -5 59.5 -12 q17.5 -7 23.5 -24 q5 -15 -4 -18 q-9 -3 -19 -9 q-21 -8 -84.5 6 q-63.5 14 -94.5 34 q-13 8 -24 10 q-11 2 -45 2 q-49 0 -86.5 -12 q-37.5 -12 -67.5 -15.5 q-30 -3.5 -43 -10.5 q-14 -7 -38 -14.5 q-24 -7.5 -33 -7.5 q-10 0 -43.5 -10 q-33.5 -10 -74.5 -15 l-84 -11 q-45 -6 -64 0.5 q-19 6.5 -33 6.5 q-11 0 -19.5 7.5 q-8.5 7.5 -5.5 16.5 q3 9 -5 12 q-20 7 11 14 q11 1 28 4 q71 9 179 31 q46 10 72.5 10 q26.5 0 42.5 5 q11 5 13 8.5 q2 3.5 1 21.5 q-3 22 -5 36 q-2 14 5.5 17.5 q7.5 3.5 20 29 q12.5 25.5 10.5 30.5 q-3 9 -7.5 6 q-4.5 -3 -55.5 -9 l-54 -5 l-39 17 q-29 12 -34 16.5 q-5 4.5 -4 16.5 q3 16 -1 20 q-13 7 18 10 q10 1 24 1 q69 1 171 21 l33 7 l13 28 q13 29 13 39.5 q0 10.5 12.5 35 q12.5 24.5 12.5 33.5 ZM605 181 q14 18 17.5 41 q3.5 23 8.5 26 q5 3 5 18.5 q0 15.5 -5 13.5 q-36 -5 -57 -19 q-13 -9 -22 -11 q-9 -3 -21 -25 q-12 -22 -12 -33 q0 -7 -12.5 -22.5 q-12.5 -15.5 -10.5 -24.5 q2 -9 -17.5 -32 q-19.5 -23 -27.5 -23 q-7 0 -10 -6 q-6 -9 80 5 q18 4 35 7 q31 7 37 10.5 q6 3.5 3 10.5 q-12 39 9 64 ZM594 632 q9 8 45 3 q36 -5 57 -17 q17 -10 20.5 -15 q3.5 -5 1.5 -12 q-4 -10 -4 -11 q-4 -3 -21.5 -10 q-17.5 -7 -21.5 -7 q-9 0 -18.5 -7 q-9.5 -7 -19 -7.5 q-9.5 -0.5 -41 -9.5 q-31.5 -9 -57.5 -15 l-81 -15 q-42 -10 -52 -7.5 q-10 2.5 -24 23.5 q-11 19 -22 21 q-19 5 -7 16 q7 7 -3 14 q-17 12 11 14 q10 1 28 1 q56 2 126 15 q70 13 83 26 Z" /><glyph glyph-name="uni4F4F" unicode="&#x4f4f;" d="M302 263 q0 14 10 5 q3 -2 6 -7 q5 -9 12 -9 q16 0 23 -70 q4 -44 9.5 -47.5 q5.5 -3.5 3.5 -10.5 q-2 -7 -5 -39 q-3 -32 -6.5 -60 q-3.5 -28 7.5 -51 l12 -22 l-14 -14 q-14 -14 -20.5 -8.5 q-6.5 5.5 -24.5 2.5 q-13 -2 -17 1.5 q-4 3.5 -15 24.5 q-12 19 -14.5 31 q-2.5 12 -1.5 43 q0 101 25 189 q10 35 10 42 ZM719 232 q6 4 3 40 q-3 36 4 40 q7 4 15 2 q8 -2 22 -5 q14 -3 30.5 -15.5 q16.5 -12.5 16.5 -18.5 q0 -8 10.5 -15.5 q10.5 -7.5 23.5 -7.5 q8 0 23 -6 q15 -6 26 -13 q11 -7 8 -9 q-1 -5 -22.5 -11 q-21.5 -6 -35.5 -8 q-12 0 -16.5 -12.5 q-4.5 -12.5 -10.5 -12.5 q-7 0 -14.5 -44 q-7.5 -44 -2.5 -54 q4 -7 49.5 -9 q45.5 -2 78.5 -12 q21 -5 28.5 -10 q7.5 -5 13.5 -18 q9 -18 7 -25 q-6 -15 -77 -3 q-30 4 -52 7 q-18 3 -75.5 -2.5 q-57.5 -5.5 -67.5 -11.5 q-10 -4 -56 -7 q-46 -3 -57 -8 q-27 -13 -68 25 q-28 28 -23 46 q1 9 15 0 q13 -8 67.5 -9 q54.5 -1 93.5 6 q52 10 52 17 q0 2 -3 9 q-6 9 -7 49 q-1 40 -3.5 42 q-2.5 2 -16.5 -2.5 q-14 -4.5 -28 -4.5 q-14 0 -19 -6 q-7 -8 -36 -5.5 q-29 2.5 -51 12.5 q-18 8 -23.5 13 q-5.5 5 -8.5 16 q-4 20 1 20 q3 -1 8 -7.5 q5 -6.5 12 -7 q7 -0.5 35 3.5 q32 4 77.5 16 q45.5 12 53.5 16 ZM803 408 q139 17 163 2 q11 -9 11 -13 q0 -19 -87 -22 q-116 -6 -173 -30 q-38 -15 -66 -19 l-49 -7 q-20 -4 -25 -9 q-5 -2 -39 16.5 q-34 18.5 -51 34.5 q-11 11 -12.5 20 q-1.5 9 6.5 13 q7 3 31 -2 q39 -9 62.5 -9 q23.5 0 84.5 9 q84 11 144 16 ZM610 649 q0 10 1.5 13 q1.5 3 7.5 0 q8 -3 30 -9 q44 -11 94 -35 q48 -22 48 -58 q0 -16 9.5 -37.5 q9.5 -21.5 9.5 -34.5 q0 -7 -1 -8.5 q-1 -1.5 -8 0.5 q-12 4 -47 5 q-22 0 -30.5 3 q-8.5 3 -18.5 13 q-14 12 -43 55 q-29 43 -36 61 q-7 17 -11.5 17 q-4.5 0 -4.5 15 ZM395 663 q11 17 49 -17 q25 -23 25 -39 q0 -11 -10 -30 q-10 -19 -17 -19 q-4 0 -63 -59 q-78 -79 -122 -166 q-81 -168 -116 -226 q-8 -15 -14.5 -39 q-6.5 -24 -14.5 -24 q-7 0 -31 -8 q-24 -8 -28 -13 q-4 -4 -16 -3 q-12 1 -13 5 q-6 8 16.5 35.5 q22.5 27.5 44.5 39.5 q11 6 21 25 q10 19 17 26 q20 15 46 92 q14 39 61.5 140.5 q47.5 101.5 64.5 127.5 q45 65 72 98 q23 26 23 37.5 q0 11.5 5 16.5 Z" /><glyph glyph-name="uni4F9D" unicode="&#x4f9d;" d="M216 220 q6 14 6 43 q0 29 3.5 32.5 q3.5 3.5 4.5 2.5 q1 -1 6 -9 q19 -36 21 -161 q1 -78 1.5 -104 q0.5 -26 -5.5 -32.5 q-6 -6.5 -22 4.5 q-35 26 -35 90 q0 29 6.5 72 q6.5 43 13.5 62 ZM833 300 q23 34 31 34 q11 0 26.5 -16 q15.5 -16 15.5 -29 q0 -8 -5 -13 q-5 -5 -20 -11 q-18 -8 -51.5 -34.5 q-33.5 -26.5 -33.5 -33.5 q0 -5 8 -5 q11 0 51.5 -14.5 q40.5 -14.5 67.5 -28.5 q35 -20 50 -38 q10 -11 11.5 -16.5 q1.5 -5.5 -2.5 -12.5 q-4 -7 -10.5 -8.5 q-6.5 -1.5 -27.5 0 q-21 1.5 -35 8.5 q-14 7 -53 32 l-69 46 q-11 7 -25 13 q-38 14 -46 32 q-3 7 5 7 q5 0 10 -1 q17 -3 24 -5 q15 -1 78 94 ZM682 360 q32 30 41 30 q8 -2 28.5 -15 q20.5 -13 21.5 -19 q3 -5 -21 -23.5 q-24 -18.5 -32 -18.5 q-4 0 -35 -22.5 q-31 -22.5 -50 -40.5 q-23 -19 -29 -41 q-6 -22 -9 -81 q-6 -117 7 -117 q4 0 38 49 q50 75 60 77 q7 1 -10 -42 q0 -2 0 -3 l-25 -64 q-13 -33 -13 -38 q0 -9 -19 -49.5 q-19 -40.5 -26 -44.5 q-8 -7 -13.5 -5 q-5.5 2 -26.5 20 l-27 21 l4 66 q3 66 10 123.5 q7 57.5 4 61.5 q-7 6 -84 -52 q-35 -25 -46 -25 q-11 0 -34 -18 q-23 -18 -27 -16 q-9 10 27.5 48.5 q36.5 38.5 89.5 75.5 q79 53 80 72 q1 12 2 16 q1 4 12 3 q18 -2 102 72 ZM636 428 q50 14 113 22 q63 8 84 6 q16 -2 32 -9 q16 -7 16 -12 q0 -10 -24 -15 q-24 -5 -42 1 q-39 15 -192 -45 q-82 -32 -121.5 -42 q-39.5 -10 -57.5 -17.5 q-18 -7.5 -31.5 -0.5 q-13.5 7 -31.5 15 q-38 15 -14 34 q13 8 18.5 6 q5.5 -2 44.5 8.5 q39 10.5 51 10.5 q18 0 155 38 ZM307 626 l24 -21 q56 -49 56 -56 q0 -4 -16 -11 q-16 -7 -25.5 -16.5 q-9.5 -9.5 -29.5 -16.5 q-20 -7 -28 -22 q-8 -15 -34 -44 q-39 -42 -87 -112 q-10 -16 -52 -59 q-42 -43 -54 -56 q-10 -11 -23.5 -15.5 q-13.5 -4.5 -18.5 1.5 q-13 11 28 55 q21 23 30.5 38 q9.5 15 43 53.5 q33.5 38.5 43 53 q9.5 14.5 36 50.5 q26.5 36 55 90.5 q28.5 54.5 39.5 71.5 l13 16 ZM573 702 q0 10 57 -10 q17 -5 22.5 -10 q5.5 -5 10.5 -15 q4 -15 15 -27 q15 -18 18 -60 q3 -25 -7 -35 q-10 -10 -10 -32 q0 -22 -7.5 -26.5 q-7.5 -4.5 -21.5 11.5 q-10 12 -31 52 q-21 40 -21 47 q0 7 -19 46 q-23 52 -13 53 q7 0 7 6 Z" /><glyph glyph-name="uni516D" unicode="&#x516d;" d="M334 183 l3 -12 q6 -19 18 -64 q3 -11 -6 -22 q-7 -9 -11.5 -10 q-4.5 -1 -19.5 4 q-22 6 -50.5 2 q-28.5 -4 -35 5 q-6.5 9 6.5 24 q34 41 73 61 l22 12 ZM605 213 q3 2 23.5 -15.5 q20.5 -17.5 55 -39.5 q34.5 -22 53 -49 q18.5 -27 37 -40.5 q18.5 -13.5 18.5 -29.5 q0 -16 -7.5 -19 q-7.5 -3 -38.5 0 q-74 9 -122 95 q-12 21 -18.5 56.5 q-6.5 35.5 -0.5 41.5 ZM592 382 q26 3 88 0.5 q62 -2.5 84 -6.5 q25 -6 64 -12 q86 -13 88 -38 q2 -15 -6 -19.5 q-8 -4.5 -33 -5.5 q-24 -2 -38.5 1 q-14.5 3 -61.5 22 q-46 18 -91 24 q-30 4 -48 3.5 q-18 -0.5 -61 -8.5 q-65 -10 -79 -16 q-14 -6 -34 -6 q-24 0 -121 -28 q-50 -14 -114.5 -20 q-64.5 -6 -91.5 1 q-16 5 -35 21.5 q-19 16.5 -19 27.5 q0 6 6 8 q6 2 25 2 q31 0 64.5 4.5 q33.5 4.5 100.5 10.5 q80 7 224 25 q64 7 89 9 ZM446 576 q9 4 12.5 4 q3.5 0 15.5 -9 q13 -10 46 -25 q41 -19 44.5 -36 q3.5 -17 -27.5 -45 q-10 -8 -39 -38 q-21 -20 -26 -22.5 q-5 -2.5 -11 3.5 q-21 29 -6 74 q9 23 1.5 48 q-7.5 25 -13.5 32.5 q-6 7.5 3 13.5 Z" /><glyph glyph-name="uni51FA" unicode="&#x51fa;" d="M472 583 q3 6 14.5 6 q11.5 0 15.5 -6.5 q4 -6.5 11.5 -3 q7.5 3.5 25.5 -17.5 l18 -21 l-2 -70 q-3 -70 6 -70 q4 0 10 7 q7 5 42 15 l42 12 q7 2 10 25 q5 35 10.5 43.5 q5.5 8.5 28.5 8.5 q28 1 41.5 -9.5 q13.5 -10.5 5.5 -26.5 q-6 -15 -1.5 -18 q4.5 -3 3 -30.5 q-1.5 -27.5 -6.5 -39.5 q-6 -9 -21 -3 q-34 20 -42 7 q-3 -7 -14.5 -1 q-11.5 6 -32.5 -3 q-15 -4 -53 -23 q-38 -19 -43 -24 q-1 -3 -8.5 -103.5 q-7.5 -100.5 -5.5 -103.5 q1 -3 41 1 q40 4 84 9 q47 3 52.5 10.5 q5.5 7.5 -5.5 45.5 q-12 39 -8.5 50.5 q3.5 11.5 22.5 11.5 q20 0 31 -12 q11 -12 18 -43 q8 -34 21.5 -79.5 q13.5 -45.5 13.5 -63.5 q0 -11 2 -14 q2 -3 6 0 q9 1 9.5 -3 q0.5 -4 -7.5 -10 q-6 -7 -1.5 -7 q4.5 0 -2.5 -9 q-7 -9 -26 1 q-19 10 -40 34.5 q-21 24.5 -21 35.5 q0 13 -24 19 q-31 8 -139 -27 q-26 -8 -64 -17 q-38 -9 -105 -32 q-63 -21 -85.5 -25 q-22.5 -4 -40.5 -1 q-20 3 -24 17 q-4 14 -25 16 q-13 1 -17 4.5 q-4 3.5 -4 12.5 q0 13 25 47.5 q25 34.5 35 34.5 q6 0 29 24 q24 27 35 29 q11 2 28 -16 q15 -13 17.5 -18 q2.5 -5 -4.5 -11 q-8 -12 -12 -21.5 q-4 -9.5 1 -12.5 q5 -4 57 3 l52 8 l9 40 q10 41 10 50 q0 9 3 46 l5 37 l-13 -9 q-21 -13 -103.5 -27 q-82.5 -14 -89.5 -6 q-3 5 -10.5 6.5 q-7.5 1.5 -29.5 22.5 q-16 15 -18.5 21.5 q-2.5 6.5 0.5 25.5 q5 26 14.5 55.5 q9.5 29.5 12.5 56.5 q4 26 14.5 34 q10.5 8 23.5 -5 q11 -9 14 -6 q5 5 21.5 -8 q16.5 -13 19.5 -21 q3 -12 -9 -39.5 q-12 -27.5 -9 -38.5 q10 -26 102 -7 l50 10 l0 106 q0 105 5 113 Z" /><glyph glyph-name="uni5230" unicode="&#x5230;" d="M804 564 q16 7 14.5 -0.5 q-1.5 -7.5 -18.5 -27.5 q-21 -24 -28.5 -38 q-7.5 -14 -11 -14 q-3.5 0 -15.5 -23 q-12 -23 -9 -48 q0 -20 -2 -25 q-2 -5 -12 -2 q-6 2 -24 4 q-14 3 -29.5 17 q-15.5 14 -15.5 25 q0 7 -6 7 q-6 0 -13 5 q-7 5 2 33 q13 42 19.5 48.5 q6.5 6.5 25.5 -3.5 q24 -13 41 0 q10 7 19 7 q9 0 30 14 q21 14 33 21 ZM491 680 q3 6 20.5 6 q17.5 0 26.5 -6 q10 -5 10 -16.5 q0 -11.5 -26 -25.5 q-33 -17 -72.5 -52.5 q-39.5 -35.5 -65.5 -69.5 q-19 -25 -25 -28 q-11 -8 9 -8 q14 0 39 3 q49 7 55 12 q6 5 -2 26 q-4 8 8.5 13.5 q12.5 5.5 48.5 -6.5 q56 -21 56 -40 q0 -5 7 0.5 q7 5.5 12 -6.5 q5 -12 1 -15.5 q-4 -3.5 -4 2.5 q0 12 -10 1 q-3 -4 -6 -10 q-9 -28 -33 -32 q-11 -3 -17.5 0.5 q-6.5 3.5 -21.5 20.5 q-21 23 -30.5 23 q-9.5 0 -32.5 -21 l-17 -14 l17 -13 q16 -14 10.5 -21 q-5.5 -7 -6.5 -20 q-2 -8 2.5 -11 q4.5 -3 25.5 -8 q31 -7 32 -9 q1 -1 -8 -11.5 q-9 -10.5 -20 -20.5 q-11 -10 -13 -10 q-5 0 -19 -11 q-11 -7 -12.5 -14 q-1.5 -7 -1.5 -33 q0 -38 2.5 -38 q2.5 0 44 23 q41.5 23 44.5 20 q11 -11 -58 -74 q-49 -45 -112 -88 q-21 -14 -37 -30 q-44 -37 -69 -37 q-7 0 -7 5.5 q0 5.5 -18 25 q-18 19.5 -16 34.5 q6 24 52 21 q16 -1 19.5 4.5 q3.5 5.5 38.5 25.5 q14 8 23.5 16 q9.5 8 8.5 10 q-3 5 -3 42.5 q0 37.5 -0.5 37.5 q-0.5 0 -45.5 -18 q-45 -18 -62 -18 q-14 0 -40.5 16 q-26.5 16 -25.5 22 q2 5 34 8 q22 3 77 22 q55 19 67 28 q7 7 6.5 34.5 q-0.5 27.5 -7.5 40.5 l-9 14 l-39 -16 q-38 -17 -83.5 -30 q-45.5 -13 -63.5 -20 q-21 -9 -26 -6.5 q-5 2.5 -13 18.5 q-11 21 -21 31 q-10 10 -15.5 31 q-5.5 21 0.5 32 q4 9 8 10 q4 1 17 -1 q18 -3 27 -7.5 q9 -4.5 17.5 -4.5 q8.5 0 18.5 -8 q5 -7 13 -6.5 q8 0.5 39 10.5 q43 14 74 41 q15 12 51.5 48 q36.5 36 66.5 66 q30 30 27 30 q-2 0 -33 -10 q-31 -10 -61 -18 q-30 -8 -58 -22 q-77 -38 -121 -34 q-30 3 -68 33 q-38 30 -38 51 q0 18 38 3 q40 -18 126 1 q50 11 75.5 14 q25.5 3 37.5 4 q156 24 160 38 ZM858 728 q-3 12 -1.5 15 q1.5 3 8.5 3 q12 0 41.5 -17 q29.5 -17 35.5 -28 q7 -11 4.5 -38.5 q-2.5 -27.5 -13.5 -49.5 q-8 -21 -9.5 -91 q-1.5 -70 -7.5 -129 q-8 -85 -11.5 -265.5 q-3.5 -180.5 0.5 -215.5 q4 -20 1.5 -39.5 q-2.5 -19.5 -8.5 -21.5 q-5 -1 -17 20.5 q-12 21.5 -12 51.5 q0 85 11 204 q4 39 5.5 204.5 q1.5 165.5 -1.5 170.5 q-5 10 -19 156 q-5 50 -7 70 Z" /><glyph glyph-name="uni5468" unicode="&#x5468;" d="M585 322 q85 19 144 4 q14 -4 17.5 -17 q3.5 -13 -4.5 -22 q-10 -12 -22 -32 q-12 -20 -36 -48 q-15 -18 -19.5 -26 q-4.5 -8 -1.5 -18 q3 -15 -8 -18.5 q-11 -3.5 -35 -17.5 q-35 -21 -97 -20 q-17 0 -28 -5 q-14 -7 -25 5.5 q-11 12.5 -17 40.5 q-4 28 -16.5 57.5 q-12.5 29.5 -23 36.5 q-10.5 7 -10.5 18 q0 11 21.5 16.5 q21.5 5.5 64.5 19 q43 13.5 96 26.5 ZM648 277 q1 11 -0.5 14 q-1.5 3 -10.5 3 q-20 -2 -67 -16 q-47 -14 -47 -19 q0 -5 -19 -13 l-21 -7 l2 -29 q6 -40 17 -56 q0 -2 22.5 3.5 q22.5 5.5 57.5 11.5 q25 4 31.5 7.5 q6.5 3.5 11.5 16.5 q10 19 23 84 ZM232 569 q0 16 28 -2 q20 -13 28 -27 q17 -32 6 -126 q-16 -155 -16 -168 q3 -25 -10.5 -84 q-13.5 -59 -27.5 -84 q-11 -22 -20.5 -20 q-9.5 2 -12 11.5 q-2.5 9.5 -9.5 14 q-7 4.5 -7 11.5 q0 7 -9.5 12.5 q-9.5 5.5 -9.5 11 q0 5.5 -8.5 14.5 q-8.5 9 -3.5 15 q5 6 24 6 q17 1 24 10 q7 9 11 33 q3 18 10 63 q20 127 17 220 q-3 71 -8.5 76.5 q-5.5 5.5 -5.5 12.5 ZM568 604 q13 6 34 0 q12 -4 17.5 -9 q5.5 -5 12.5 -17 l10 -21 l34 -3 q52 -4 49 -20 q-2 -2 -4 -5 q-7 -7 -27 -12.5 q-20 -5.5 -32 -3.5 q-11 2 -14.5 0.5 q-3.5 -1.5 -5.5 -11.5 q-3 -15 -8 -31 q-6 -21 -4.5 -29 q1.5 -8 14.5 -8 q106 -3 105 -16 q0 -7 -21 -17 q-17 -8 -58 -2 l-40 5 l-19 -15 q-18 -16 -19.5 -16 q-1.5 0 -16.5 6 q-13 4 -24 0.5 q-11 -3.5 -74 -34.5 q-35 -15 -67 -13 q-32 2 -42 22 q-7 11 0.5 18 q7.5 7 28.5 10 q69 8 125 25 l39 11 l-1 34 q-2 35 -5 39 q-4 4 -42.5 -7 q-38.5 -11 -77.5 -27 q-17 -7 -19.5 -2.5 q-2.5 4.5 -18.5 7.5 q-29 7 -29 23 q0 9 15.5 16.5 q15.5 7.5 31.5 7.5 q17 0 29.5 5 q12.5 5 54.5 11.5 q42 6.5 48.5 11 q6.5 4.5 7.5 32.5 q0 19 3 25 q3 6 10 10 ZM560 686 q71 7 123 -6 q19 -6 45 -7 q23 -3 54.5 -17 q31.5 -14 38.5 -26 q35 -56 13 -156 q-7 -32 -7 -67 q0 -35 -5 -50.5 q-5 -15.5 -0.5 -33 q4.5 -17.5 2 -63 q-2.5 -45.5 -2.5 -158.5 q0 -181 -4 -188 q-1 -4 -16.5 -4 q-15.5 0 -18.5 10.5 q-3 10.5 -7 10.5 q-4 0 -9.5 10.5 q-5.5 10.5 5.5 23.5 q8 8 10.5 21.5 q2.5 13.5 3.5 69.5 q4 271 -1 333 q-3 47 -6 108 q-1 43 -4 64.5 q-3 21.5 -7 40 q-4 18.5 -17 26 q-13 7.5 -27 12.5 q-14 5 -43 11 q-38 5 -58 2.5 q-20 -2.5 -46 -4.5 q-23 -1 -57 -7.5 q-34 -6.5 -41 -10.5 q-22 -13 -82 -20.5 q-60 -7.5 -76 -0.5 q-10 4 -24 7 q-14 3 -16.5 12 q-2.5 9 7 17.5 q9.5 8.5 59.5 12 q50 3.5 78 8.5 q70 12 136 19 Z" /><glyph glyph-name="uni548C" unicode="&#x548c;" d="M599 438 q20 -1 34 -6.5 q14 -5.5 37.5 0 q23.5 5.5 61.5 10.5 q38 5 52 9 q14 4 64 4 q83 3 93 -21 q3 -8 -59 -88 q-25 -31 -21.5 -44 q3.5 -13 -4.5 -19.5 q-8 -6.5 -38 -13.5 q-33 -8 -61 -16 q-28 -8 -44 -8 q-16 0 -16 -9 q0 -9 -7.5 -15.5 q-7.5 -6.5 -27.5 7.5 q-17 13 -24 27 q-7 14 -15 50 q-6 30 -24 69 q-18 39 -19 52 q-2 10 1 12 q3 2 18 0 ZM841 419 q-1 5 -15.5 4.5 q-14.5 -0.5 -30.5 -7.5 q-19 -8 -32 -8 q-13 0 -50 -13 q-34 -10 -39 -19.5 q-5 -9.5 6 -54.5 q7 -34 15 -38 q8 -4 34 7 q21 10 45 17 q18 5 24 11.5 q6 6.5 20 33.5 q26 53 23 67 ZM357 455 q-13 20 -1.5 32 q11.5 12 42 0.5 q30.5 -11.5 42.5 -30.5 q8 -14 15.5 -15 q7.5 -1 14.5 -2.5 q7 -1.5 13.5 -2 q6.5 -0.5 6.5 -7.5 q0 -13 -24 -13 q-26 0 -26 -53 l0 -36 l26 -3 q31 -4 76 -20 q14 -5 22 -15 q6 -6 6 -8.5 q0 -2.5 -7 -8.5 q-7 -5 -24 -5 q-17 0 -69 8 q-33 4 -35 3 q-2 -4 -7 -123 q-1 -34 3 -101 q4 -67 -3.5 -84 q-7.5 -17 -11.5 -17 q-6 0 -53.5 48.5 q-47.5 48.5 -48.5 55.5 q-2 5 -2 8 q0 3 5.5 3 q5.5 0 13.5 -1.5 q8 -1.5 23 -5.5 q28 -7 32 -3 q6 6 -0.5 114.5 q-6.5 108.5 -10.5 108.5 q-4 0 -13 -14 q-9 -14 -29.5 -37.5 q-20.5 -23.5 -32.5 -39.5 q-35 -49 -95.5 -103 q-60.5 -54 -81.5 -54 q-43 0 31 66 q3 2 7 5 q45 38 136 151 q74 93 71 108 q-1 13 -19 7 q-23 -5 -152 -70 q-60 -29 -71 -30.5 q-11 -1.5 -42 18.5 q-11 7 -19.5 21.5 q-8.5 14.5 -4.5 21.5 q3 4 20 4 q25 0 133 38 q77 25 126 39 q38 11 18 42 ZM406 632 q18 21 32 7 q6 -6 18 -12.5 q12 -6.5 16.5 -20.5 q4.5 -14 -0.5 -26 q-3 -11 -8.5 -12.5 q-5.5 -1.5 -36.5 1.5 q-35 1 -102 -26 q-28 -12 -59.5 -13.5 q-31.5 -1.5 -47.5 -9.5 q-25 -13 -25 5 q0 14 76 44 q120 46 137 63 Z" /><glyph glyph-name="uni5566" unicode="&#x5566;" d="M786 360 q-3 13 -1 14 q2 1 13 -1 q24 -6 38 -18.5 q14 -12.5 29 -42.5 q16 -32 17.5 -48.5 q1.5 -16.5 -12.5 -26.5 q-13 -7 -13 -12.5 q0 -5.5 -13 -39.5 q-11 -29 -6 -35 q5 -6 43 -6 q64 -1 94 -21 q28 -21 2 -33 q-15 -7 -43.5 -3.5 q-28.5 3.5 -71.5 2.5 q-43 -1 -64 -5 q-28 -5 -65 -5 q-37 0 -82.5 -8 q-45.5 -8 -70.5 -4 q-46 13 -53 24 q4 4 71 21 q67 17 77 17 q8 0 11 6.5 q3 6.5 -5 10.5 q-9 5 -18 32 q-9 27 -12 56 q-8 62 14 92 q6 12 6 20 q0 20 21 1 q12 -12 22 -30 q7 -14 3 -14 q0 0 -3 0 q-4 1 -6 0.5 q-2 -0.5 -3.5 -8.5 q-1.5 -8 -1 -20.5 q0.5 -12.5 2.5 -36.5 q7 -89 29 -98 q7 -3 27 2 q12 2 15.5 8 q3.5 6 8.5 31 q9 50 11.5 94 q2.5 44 -2.5 56 q-7 12 -9 29 ZM244 466 q17 2 38.5 -1.5 q21.5 -3.5 29.5 -9.5 q6 -5 12 -22 q4 -13 2.5 -17 q-1.5 -4 -11.5 -14 q-15 -14 -27.5 -34.5 q-12.5 -20.5 -31 -40 q-18.5 -19.5 -16.5 -34.5 q0 -10 -1.5 -13 q-1.5 -3 -7.5 -3 q-15 0 -46.5 -9 q-31.5 -9 -41.5 -16 q-6 -4 -14 -22 q-7 -11 -10 -11 q-3 5 -17 5 q-14 0 -20 8 q-6 8 -23 15 q-17 7 -17 16.5 q0 9.5 -13 19.5 q-13 10 -12.5 19.5 q0.5 9.5 3.5 49.5 q3 40 -6 49 q-4 5 -2.5 8.5 q1.5 3.5 12.5 13.5 q18 13 27 8 q9 -5 12.5 -11.5 q3.5 -6.5 6.5 0 q3 6.5 11 6.5 q12 0 49 9 q37 9 61 17 q29 12 53 14 ZM244 427 q0 11 -14 4 q-7 -2 -23 -12 q-23 -16 -57.5 -23.5 q-34.5 -7.5 -45.5 -0.5 q-7 3 -15.5 4.5 q-8.5 1.5 -15 0 q-6.5 -1.5 -6.5 -4.5 q0 -6 13 -29 l27 -47 q15 -28 22 -31.5 q7 -3.5 25 5.5 q21 11 32 14 q9 3 18 16 q9 13 9 24 q0 7 15.5 40 q15.5 33 15.5 40 ZM760 447 q7 5 2.5 13 q-4.5 8 -18 57.5 q-13.5 49.5 -28 82.5 q-14.5 33 -14.5 43 q0 10 2 10 q7 0 49 -12 q42 -12 47 -15 q12 -7 14 -109 q0 -18 0.5 -27.5 q0.5 -9.5 1 -15.5 q0.5 -6 2 -7.5 q1.5 -1.5 4.5 -0.5 q8 3 46.5 2.5 q38.5 -0.5 47.5 -10.5 q14 -18 -9 -25 q-14 -6 -61 -11 q-41 -6 -73 -23 q-29 -14 -70 -19 q-41 -5 -60 5 q-17 7 -17 14 q0 10 53 18 q16 3 44.5 13.5 q28.5 10.5 36.5 16.5 ZM452 679 q-1 11 0.5 14.5 q1.5 3.5 6.5 2.5 q9 -3 22 -5.5 q13 -2.5 29 -23.5 q10 -17 12.5 -28.5 q2.5 -11.5 2.5 -51.5 q2 -58 -3 -88 q-4 -45 -2.5 -50 q1.5 -5 21.5 -4 q22 2 34 -10.5 q12 -12.5 8.5 -20.5 q-3.5 -8 -26.5 -15 q-25 -10 -35 -14 q-9 -4 -16 -30 q-7 -26 -3 -51 q1 -15 4 -19.5 q3 -4.5 7 -1.5 q8 3 15 5 q7 2 11.5 1.5 q4.5 -0.5 4.5 -3.5 q0 -4 -20.5 -19 q-20.5 -15 -24.5 -27 q-6 -12 -6 -68.5 q0 -56.5 5 -69.5 q5 -12 1 -90.5 q-4 -78.5 -11 -93.5 q-7 -20 -19.5 -16 q-12.5 4 -42.5 37 q-21 25 -35.5 48.5 q-14.5 23.5 -10.5 28.5 q1 2 27 -4 q26 -6 29 -3 q3 2 9 56 q6 54 8 95 q1 46 -3 51.5 q-4 5.5 -29 -16.5 q-69 -59 -82 -63 q-11 -4 -28.5 -24.5 q-17.5 -20.5 -23.5 -17 q-6 3.5 -31.5 17.5 q-25.5 14 -25.5 23 q0 9 26 17.5 q26 8.5 53.5 26.5 q27.5 18 88.5 49 l60 31 l0 49 q0 49 -2 53 q-3 2 -26 -11 q-23 -13 -28 -18 q-4 -6 -29 3 q-25 9 -36 19 q-14 13 -14 23 q0 7 9 11 q9 4 42 14 q52 14 69 21 l17 7 l-3 117 q-3 117 -6 136 Z" /><glyph glyph-name="uni5609" unicode="&#x5609;" d="M225 30 q-3 5 4 5 q7 0 71.5 18.5 q64.5 18.5 78.5 18.5 q14 0 32 25 q18 25 32 24 q9 -2 11 -5.5 q2 -3.5 2 -15.5 q-2 -17 4 -18.5 q6 -1.5 36 7.5 q30 8 42 0 q27 -19 7 -48 q-11 -18 -11 -29 q0 -26 -22 -84 l-18 -54 q-13 -32 -13 -33 q-3 -3 -8.5 -1 q-5.5 2 -12 7.5 q-6.5 5.5 -8.5 11.5 q-6 13 -19 27 q-42 42 -37 58 q2 10 32 -16 l25 -24 l7 15 q17 31 28 68 q11 37 8 53 q-1 22 -4 23 q-3 5 -31 -5 q-28 -10 -32 -16 q-57 -77 -94 -137 q-19 -31 -34.5 -46 q-15.5 -15 -52 -42.5 q-36.5 -27.5 -40.5 -27.5 q-6 0 -7 15 q-1 10 5 19 q6 9 34 37 q23 23 53 61.5 q30 38.5 49 69 q19 30.5 12 30.5 q-7 0 -45 -14 q-28 -9 -35 -10 q-7 -1 -21 6 q-24 10 -28 27 ZM778 132 q24 7 37 3 q13 -4 37 -25 q29 -26 29 -32 q0 -6 -25 -32 q-25 -26 -36 -46 q-11 -23 -28 -30 q-17 -7 -73 -10 q-67 -4 -80 -7 q-25 -6 -37 19.5 q-12 25.5 -16 95.5 q-3 39 -1.5 46.5 q1.5 7.5 8.5 7.5 q11 0 29 -18 q14 -14 26 -13.5 q12 0.5 70 20.5 q44 15 60 21 ZM783 79 q-1 5 -8 6.5 q-7 1.5 -10 -1.5 q-3 -2 -58 -12.5 q-55 -10.5 -61 -16.5 q-5 -6 -4 -30.5 q1 -24.5 7 -33.5 q4 -6 52 4 q43 10 53.5 14 q10.5 4 10.5 12 q0 10 10.5 30.5 q10.5 20.5 7.5 27.5 ZM681 345 q4 10 26.5 7 q22.5 -3 29.5 -9 q7 -7 7 -15 q0 -8 -7 -15 q-7 -6 -7 -13.5 q0 -7.5 69 -5.5 q120 7 126 -11 q3 -8 13.5 -30 q10.5 -22 4.5 -26 q-6 -5 -19 -5 q-13 0 -26 4 q-67 26 -157 26 l-53 0 l-22 -21 l-115 -96 q-18 -16 -24 -10 q-5 7 8 31.5 q13 24.5 37 49.5 q27 28 27 32.5 q0 4.5 -16 1.5 q-56 -9 -89 -18 q-19 -5 -31.5 -5 q-12.5 0 -22.5 -7 q-7 -4 -5.5 -8 q1.5 -4 12.5 -18 q14 -18 15 -22.5 q1 -4.5 -12 -7.5 q-21 -5 -53 27 q-17 15 -33.5 16.5 q-16.5 1.5 -58.5 -8.5 q-31 -8 -50.5 -11.5 q-19.5 -3.5 -73.5 -17.5 q-36 -10 -48.5 -11.5 q-12.5 -1.5 -30.5 3.5 q-27 7 -37.5 21.5 q-10.5 14.5 -8.5 16.5 q2 2 52.5 4 q50.5 2 95.5 12 q45 10 91.5 15.5 q46.5 5.5 51 8.5 q4.5 3 -9 27.5 q-13.5 24.5 -9 28.5 q4.5 4 38 -5 q33.5 -9 47.5 -24 q10 -10 15.5 -12 q5.5 -2 22.5 0 q23 3 28 8 q5 5 18 5 q28 0 91 14.5 q63 14.5 68 23.5 q17 22 24 49 ZM538 448 q90 23 125 0 q18 -9 15.5 -16 q-2.5 -7 -37.5 -38 q-19 -14 -34 -43.5 q-15 -29.5 -28 -36.5 q-8 -4 -53.5 -8.5 q-45.5 -4.5 -69.5 -4.5 q-10 2 -21 -12 l-10 -13 l-22 16 q-21 14 -31 32 q-11 21 -10 61 q1 40 14 54 q1 1 22 -10 l20 -13 l32 11 q32 12 41.5 12 q9.5 0 46.5 9 ZM579 415 q0 4 -8 3 q-12 0 -47.5 -8 q-35.5 -8 -48.5 -12 q-15 -4 -33 -4 q-37 0 -14 -31 q10 -14 10 -18 q1 -11 9.5 -12.5 q8.5 -1.5 36.5 3.5 q38 7 54 10 q16 3 20 9 q3 5 12 30.5 q9 25.5 9 29.5 ZM468 779 q5 19 7.5 25.5 q2.5 6.5 6.5 3.5 q9 -3 19 -5 q26 -7 43 -35 q8 -14 4 -39.5 q-4 -25.5 -4 -57.5 q0 -10 0 -15.5 q0 -5.5 0.5 -9.5 q0.5 -4 3 -4 q2.5 0 3.5 0 q14 5 76.5 10 q62.5 5 102.5 5 q38 -1 49 -3.5 q11 -2.5 20 -9.5 l11 -11 l-10 -10 q-10 -9 -42.5 -12 q-32.5 -3 -58.5 4 q-19 6 -66 5 q-47 -1 -72 -6 q-17 -6 -22 -10 q-5 -4 -12 -27 q-10 -28 -7.5 -34 q2.5 -6 86.5 -6 q65 0 82.5 -4.5 q17.5 -4.5 15.5 -19.5 q-2 -10 -14 -10.5 q-12 -0.5 -80 3.5 q-28 1 -54.5 -8 q-26.5 -9 -33.5 -9 q-7 0 -33 -7 q-28 -8 -84.5 -21 q-56.5 -13 -67.5 -13 q-11 0 -31.5 13 q-20.5 13 -20.5 20 q0 5 10 4 q12 -2 105 24 q38 11 55.5 11 q17.5 0 19.5 4 q2 4 -7 21 q-9 20 -9 29.5 q0 9.5 -10 9.5 q-11 0 -47 -7.5 q-36 -7.5 -54 -13.5 q-50 -18 -94 11 q-19 14 -19 24 q0 6 5.5 7.5 q5.5 1.5 31.5 -0.5 q34 -1 113 11.5 q79 12.5 85 19.5 q4 8 -4 85 q-3 24 2 58 Z" /><glyph glyph-name="uni5A5A" unicode="&#x5a5a;" d="M623 181 q28 10 59 16 q31 6 38.5 9 q7.5 3 35.5 6.5 q28 3.5 30 5.5 q2 2 14.5 -1.5 q12.5 -3.5 22.5 -7.5 q5 -2 6 -14 q1 -12 0 -57 q0 -68 -5 -120 q-5 -51 -13 -51 q-6 -1 -19 20 l-12 19 l-27 -4 q-93 -12 -139 7 q-12 4 -25 23.5 q-13 19.5 -13 34.5 q0 12 -11 42 q-11 30 -19 39 q-17 20 0 31 q8 5 13 5.5 q5 0.5 18 -4.5 q13 -5 20 -5 q7 0 26 6 ZM792 151 q0 24 -7 32 q-4 5 -9 3.5 q-5 -1.5 -25 -9.5 q-28 -13 -55 -19 q-29 -8 -53 -21.5 q-24 -13.5 -24 -24.5 q0 -10 4.5 -12 q4.5 -2 20.5 3 q105 31 128 28 l20 -4 l0 24 ZM789 98 l-24 1 q-30 1 -121 -24 q-16 -4 -18 -6.5 q-2 -2.5 0 -17.5 q2 -22 10 -25.5 q8 -3.5 42 4.5 q39 9 71 11 q32 2 37.5 8.5 q5.5 6.5 4.5 28.5 l-2 20 ZM697 622 q15 9 20 5 q8 -4 27 -26 q19 -22 19 -26 q0 -5 -14 -17 q-9 -8 -19 -10 q-10 -2 -40 -2 q-47 -1 -59.5 -6 q-12.5 -5 -39.5 -6 l-28 0 l-5 -33 q-4 -31 -6 -65 q-2 -34 1.5 -37 q3.5 -3 64 18 q60.5 21 60.5 25 q0 5 -14 18.5 q-14 13.5 -19.5 27 q-5.5 13.5 2 19.5 q7.5 6 24 -3 q16.5 -9 26.5 -25 q18 -26 32 -13 q8 7 30 7 q12 0 16.5 -1.5 q4.5 -1.5 5.5 -8.5 q3 -12 1 -14.5 q-2 -2.5 -17 -6.5 q-21 -7 -23.5 -15.5 q-2.5 -8.5 11.5 -26.5 q108 -144 172 -184 q21 -13 35 -26.5 q14 -13.5 18 -13.5 q4 0 9.5 14.5 q5.5 14.5 5.5 25.5 q0 16 6 5 q4 -8 8 -22 q6 -24 20 -37 q26 -24 -2 -36 q-11 -6 -50 13 q-25 12 -43.5 27 q-18.5 15 -66.5 62 q-84 84 -152 166 l-12 15 l-30 -15 q-29 -14 -61 -22 q-42 -12 -48.5 -19 q-6.5 -7 -7.5 -37 q-1 -35 3.5 -40 q4.5 -5 27 10 q22.5 15 26.5 13 q3 -2 -8 -16 q-11 -14 -27.5 -31 q-16.5 -17 -29.5 -28 q-23 -19 -32 -31 q-9 -10 -13 -10 q-4 0 -12 13 q-10 16 -8.5 36 q1.5 20 13.5 32 q9 9 11 20.5 q2 11.5 4 63.5 q2 118 -16 193 q-7 24 -6.5 27.5 q0.5 3.5 8.5 6.5 q10 3 32 -12 l23 -13 l33 12 q37 13 114 60 ZM227 587 q-3 28 2.5 36 q5.5 8 6.5 8 q4 0 24 -18 q20 -18 31 -33 q13 -14 15.5 -22 q2.5 -8 1.5 -23 q-3 -21 -17 -62 q-30 -77 -44 -201 q-4 -36 -8 -52 l-3 -16 l19 4 q18 4 49 9 l30 6 l2 57 q1 41 3 50.5 q2 9.5 9 10.5 q17 4 41 -27 q9 -10 5 -46 q-4 -36 -9 -48 q-5 -12 -16.5 -51 q-11.5 -39 -26 -63 q-14.5 -24 -14.5 -30 q0 -6 53 -14 q64 -8 84 -17 q20 -9 18 -27 q-1 -11 -4.5 -13.5 q-3.5 -2.5 -19.5 -3.5 q-22 0 -45 9 q-49 21 -90 28 q-27 5 -43 -5 q-16 -10 -22.5 -7 q-6.5 3 -10.5 -3 q-4 -6 -26 -14 q-22 -8 -38 -10 q-62 -1 -62 6 q0 4 6.5 6.5 q6.5 2.5 50.5 14.5 q46 13 53 20 q5 5 4.5 7 q-0.5 2 -7.5 9 q-18 16 -25.5 28.5 q-7.5 12.5 -10.5 31.5 q-4 28 -6.5 30.5 q-2.5 2.5 -37 -13 q-34.5 -15.5 -77.5 -19.5 q-30 -2 -39.5 -1.5 q-9.5 0.5 -22.5 8.5 q-20 11 -36 28 q-16 17 -13 24 q2 8 17 9 q15 1 31 -5 q12 -6 27 -6 q15 0 66 7 q74 8 80.5 12.5 q6.5 4.5 6.5 62.5 q0 58 7 98 q33 194 31 230 ZM322 188 q-12 3 -13 3 q-44 -10 -62 -18 q-12 -6 -15 -10.5 q-3 -4.5 -1 -23.5 q1 -27 7 -37.5 q6 -10.5 21 -15.5 q12 -4 16.5 -3.5 q4.5 0.5 12.5 8.5 q10 9 24 36 q14 27 18 42 q2 11 0.5 13.5 q-1.5 2.5 -8.5 5.5 Z" /><glyph glyph-name="uni5BBF" unicode="&#x5bbf;" d="M688 292 q43 14 56 12 q32 -6 41.5 -10 q9.5 -4 20.5 -18 q10 -14 12 -30.5 q2 -16.5 -5 -27.5 q-4 -5 -11 -34.5 q-7 -29.5 -8 -50.5 q-1 -25 -4.5 -48 q-3.5 -23 2.5 -59.5 q6 -36.5 0 -51.5 q-6 -15 -1.5 -44 q4.5 -29 2 -32.5 q-2.5 -3.5 -27.5 9.5 q-18 9 -20.5 13 q-2.5 4 -1.5 22 q1 24 6 55.5 q5 31.5 0 58 q-5 26.5 2 99.5 q8 71 8 85 q0 14 -9 24 l-8 12 l-33 -15 q-32 -13 -45.5 -13 q-13.5 0 -27.5 -6 q-11 -3 -25.5 1 q-14.5 4 -14.5 11 q0 8 92 38 ZM387 339 q26 15 39 0 q8 -12 4.5 -20.5 q-3.5 -8.5 -24.5 -21.5 q-34 -22 -44 -43.5 q-10 -21.5 -12 -74.5 q-8 -187 -8 -232 q0 -45 7.5 -53.5 q7.5 -8.5 7.5 -22.5 q0 -14 -7 -14 q-5 0 -19.5 12.5 q-14.5 12.5 -15.5 17.5 q-5 54 -7 175 q-3 112 -6.5 112 q-3.5 0 -22.5 -19 q-22 -23 -65 -52 q-43 -29 -58 -32 q-37 -4 -37 24 q0 18 32 48 q52 49 80 66 q15 8 50 39 q35 31 39 38 q1 6 23 23.5 q22 17.5 44 29.5 ZM581 372 q12 11 31 8 q14 -2 30.5 -9.5 q16.5 -7.5 16.5 -10.5 q0 -3 -10 -20 q-10 -17 -21 -14 q-11 2 -27.5 -16 q-16.5 -18 -66.5 -87 q-18 -24 -18 -50 q0 -30 6.5 -36.5 q6.5 -6.5 22.5 0.5 q32 13 78.5 27.5 q46.5 14.5 54.5 14.5 q12 0 29 -9 q15 -8 10 -13 q-10 -5 -10 -12 q0 -6 -8 -9 q-8 -3 -41 -8 q-27 -6 -51.5 -14 q-24.5 -8 -55 -14.5 q-30.5 -6.5 -33.5 -13.5 q-3 -8 10 -48 q13 -40 21 -48 q10 -8 27 -2 q17 6 64 18 q47 12 67.5 5 q20.5 -7 20.5 -11 q0 -10 -18 -17 q-18 -7 -33 -7 q-33 2 -118 -23 q-37 -12 -60 -4 q-12 5 -24 59 q-12 54 -16 127 q-6 61 -6 75 q-1 18 3 55 q4 37 9 39 q5 2 28 -7 q28 -13 29 -5 q0 6 21.5 35 q21.5 29 37.5 45 ZM585 481 q22 2 38 1.5 q16 -0.5 24 -4.5 q8 -4 8.5 -11 q0.5 -7 -5.5 -18 q-4 -10 -10.5 -14 q-6.5 -4 -24.5 -5 q-30 -3 -37 -1 q-8 4 -39.5 -3 q-31.5 -7 -60.5 -19 q-38 -14 -94 -34 q-38 -13 -51 -15 q-13 -2 -27 0 q-26 7 -25.5 18 q0.5 11 27.5 18 q20 3 84 24 q64 21 82 30 q51 26 111 33 ZM166 481 q36 34 46 41 q10 7 30 7 q24 0 31 -7 q8 -10 2 -23.5 q-6 -13.5 -18 -23.5 q-20 -11 -43.5 -44 q-23.5 -33 -25.5 -49 q0 -12 -12 -18 q-29 -8 -33 0 q5 8 -17 52 l-8 15 l48 50 ZM404 735 q5 10 30 2 q25 -8 41 -27 q39 -41 37 -82 q-1 -24 4 -28 q5 -4 54 9 q49 13 100 16.5 q51 3.5 69 9.5 q20 4 48 3 q28 -1 44 -6 q18 -10 34.5 -23.5 q16.5 -13.5 15.5 -20.5 q0 -17 -13.5 -23.5 q-13.5 -6.5 -54.5 -9.5 q-54 -4 -63.5 -13 q-9.5 -9 -17 -9 q-7.5 0 -11.5 -3.5 q-4 -3.5 -22 -4 q-18 -0.5 -21 1.5 q-5 7 6.5 19.5 q11.5 12.5 32.5 23.5 q47 23 43.5 34 q-3.5 11 -54.5 4 q-44 -5 -67 -9 q-39 -3 -92 -28 q-97 -45 -190 -45 q-62 0 -47 15 q2 3 6 6 q14 7 77 21 q63 14 66 17 q9 4 -33 72 q-14 19 -21 44.5 q-7 25.5 -1 33.5 Z" /><glyph glyph-name="uni5E74" unicode="&#x5e74;" d="M539 470 q14 2 63 -5 q13 -2 23.5 -10 q10.5 -8 10.5 -16 q0 -7 11 -23 l11 -15 l-12 -10 q-11 -8 -21 -8 q-18 0 -13 -88 q0 -12 1 -18 q1 -6 2 -10.5 q1 -4.5 2.5 -5 q1.5 -0.5 3.5 -0.5 q9 4 143.5 2 q134.5 -2 144.5 -6 q14 -6 14 -20 q0 -21 -13.5 -23 q-13.5 -2 -66.5 9 q-64 13 -108 13 q-35 0 -75.5 -8 q-40.5 -8 -48.5 -15 q-7 -7 -11.5 -98.5 q-4.5 -91.5 -2.5 -193.5 q1 -101 -10 -101 q-4 0 -13 10 q-9 11 -22 37.5 q-13 26.5 -8 50.5 q5 24 8 155 l1 133 l-12 0 q-11 0 -34.5 -8 q-23.5 -8 -34.5 -15 q-10 -7 -22 -7 q-30 0 -151 -33 q-70 -16 -101.5 -18.5 q-31.5 -2.5 -65.5 10.5 q-22 7 -39 20.5 q-17 13.5 -17 21.5 q0 7 17 12 q17 5 42 5 q35 0 95 13 q60 13 71 13 q13 0 23 21 q10 21 8 42 l-1 21 l-25 2 q-20 1 -39.5 9.5 q-19.5 8.5 -27.5 17.5 q-8 9 -8.5 19 q-0.5 10 5.5 13 q8 2 12 -0.5 q4 -2.5 48.5 8 q44.5 10.5 87.5 15.5 q38 3 95.5 15.5 q57.5 12.5 63 18.5 q5.5 6 -4.5 21 q-7 14 -7 19 q0 5 8 8 ZM545 255 q7 5 7.5 52.5 q0.5 47.5 -1.5 53.5 q-2 6 -10 5 q-35 -1 -87 -21 q-22 -7 -32 -9 q-10 -2 -12 -17 q-2 -15 -2 -46.5 q0 -31.5 1 -33.5 q3 -3 66 5.5 q63 8.5 70 10.5 ZM388 765 q0 11 3 12.5 q3 1.5 17 0.5 q57 -10 71 -38 q10 -20 10 -37 q0 -44 -102 -93 q-21 -10 -44 -34 l-22 -24 l17 3 q18 3 74 8 q139 13 168 21 q21 6 54 4.5 q33 -1.5 45 -6.5 q12 -6 20 -21.5 q8 -15.5 4 -22.5 q-4 -8 -18.5 -12.5 q-14.5 -4.5 -26.5 -1.5 q-15 6 -38 -0.5 q-23 -6.5 -35 -8 q-12 -1.5 -20 -3.5 q-47 -16 -117 -23 q-21 -1 -32.5 1 q-11.5 2 -37.5 13 q-39 16 -48 25.5 q-9 9.5 -16 7 q-7 -2.5 -11 4.5 q-6 7 -5 25 q1 18 6 26 q7 10 13.5 29 q6.5 19 23.5 43 q47 73 47 102 Z" /><glyph glyph-name="uni5F00" unicode="&#x5f00;" d="M571 625 q8 8 18 5 q10 -3 32 -6 q15 -3 21 -6.5 q6 -3.5 10 -15.5 q7 -18 9 -36 q0 -23 6 -29.5 q6 -6.5 28 -5.5 q26 2 35 10 q9 8 23.5 4 q14.5 -4 25.5 -4 q58 3 74 -16 q9 -10 3 -23 l-5 -13 l-65 3 q-65 4 -72.5 6 q-7.5 2 -33.5 -2 q-18 -2 -23.5 -5.5 q-5.5 -3.5 -10.5 -13.5 q-7 -18 -12 -88.5 q-5 -70.5 -10.5 -94.5 q-5.5 -24 -6 -114 q-0.5 -90 -5 -154 q-4.5 -64 -0.5 -81 q2 -16 2 -36 q0 -20 -2.5 -37 q-2.5 -17 -6.5 -16 q-6 2 -26 26 q-20 24 -20 39.5 q0 15.5 1 29 q1 13.5 10 79.5 q9 66 9.5 190.5 q0.5 124.5 2 186.5 q1.5 62 -1.5 63.5 q-3 1.5 -37 -2.5 q-29 -4 -58.5 -17.5 q-29.5 -13.5 -33.5 -23.5 q-5 -9 -8 -59 q-13 -157 -28 -184 q-7 -13 -18.5 -23.5 q-11.5 -10.5 -19.5 -10.5 q-10 0 -13 39 q-3 39 6 50 q13 14 22 67 q12 64 1 97 q-3 6 -28 -2 q-25 -8 -49 -12.5 q-24 -4.5 -48 -11.5 l-55 -19 q-31 -11 -40 -13 q-6 -3 -8 -0.5 q-2 2.5 -4 11.5 q-4 16 -11.5 22 q-7.5 6 -7.5 22 q0 15 9.5 20 q9.5 5 25.5 -1 q15 -4 65 11.5 q50 15.5 90 24.5 q42 9 48.5 16 q6.5 7 5.5 43 q-1 41 -9.5 53.5 q-8.5 12.5 -6 15.5 q2.5 3 52.5 4 q35 0 41.5 -1.5 q6.5 -1.5 6.5 -8.5 q-3 -27 -3.5 -43 q-0.5 -16 -0.5 -26.5 q0 -10.5 0.5 -14 q0.5 -3.5 3.5 -3.5 q6 0 62 12 l56 12 l0 35 q0 35 -12 47 q-18 18 -6 29 ZM659 737 q40 4 49 4 q9 0 23 -5 q14 -6 21 -19.5 q7 -13.5 2 -19.5 q-3 -3 -40 -7 q-102 -12 -131 -24 q-40 -13 -112 -21 q-72 -8 -117 -2 q-47 4 -56 9 q-8 1 -18 10.5 q-10 9.5 -17.5 19 q-7.5 9.5 -4.5 11.5 q5 3 45 8 q40 5 52.5 10 q12.5 5 109.5 8 q97 3 129 9 q32 6 65 9 Z" /><glyph glyph-name="uni62D4" unicode="&#x62d4;" d="M900 529 q3 -31 -9.5 -31 q-12.5 0 -45.5 32 q-33 32 -31.5 44 q1.5 12 12.5 12 q11 0 14.5 3.5 q3.5 3.5 17.5 0 q14 -3.5 26 -10.5 q12 -8 18 -7 q4 2 5.5 -3 q1.5 -5 0.5 -10.5 q-1 -5.5 -5 -7.5 q-4 -4 -3 -22 ZM231 624 q-3 4 0.5 19.5 q3.5 15.5 6 15.5 q2.5 0 29 -15.5 q26.5 -15.5 36.5 -36.5 q21 -45 12 -126 q-3 -22 -2 -27.5 q1 -5.5 6 -5.5 q9 0 15 -8 q6 -8 4 -12 q-5 -6 -12 -6 q-7 0 -11 -9 q-3 -5 -6.5 -29.5 q-3.5 -24.5 -4 -44 q-0.5 -19.5 2.5 -23.5 q3 0 33.5 15.5 q30.5 15.5 33.5 12.5 q3 -3 -19.5 -22 q-22.5 -19 -44.5 -42 l-23 -24 l-1 -42 q-2 -41 -4 -81.5 q-2 -40.5 6 -100 q8 -59.5 0 -67 q-8 -7.5 -28 3 q-20 10.5 -28 23 q-8 12.5 -33 25 q-25 12.5 -25 18 q0 5.5 29.5 5.5 q29.5 0 33.5 9 q3 7 7 90 q4 83 1 86 q-1 3 -67 -48 q-18 -14 -25 -26 q-17 -32 -48 -35 q-36 -3 -52 4 q-16 7 -15 24 q1 8 6 12.5 q5 4.5 21 9.5 q23 9 39.5 22 q16.5 13 79.5 55 q44 30 54 39 q10 9 13 23 q3 21 3 49 q0 28 -3 28 q-6 0 -44.5 -16 q-38.5 -16 -43.5 -22 q-7 -7 -41 -17 l-35 -10 l-28 14 l-28 14 l11 12 q10 9 28 9 q18 0 80.5 22 q62.5 22 91.5 39 q10 5 11 13 q1 8 -2 50 q-2 39 -9 83 q-7 44 -11 51 ZM657 679 q1 4 28 -9 q38 -15 50 -26 l13 -9 l-10 -38 q-7 -29 -31 -78.5 q-24 -49.5 -40 -72.5 q-16 -18 -7 -18 q5 1 28 10 q25 10 34 10 q9 0 15.5 7.5 q6.5 7.5 45.5 5.5 q39 -2 45 -5 q5 -4 5 -16 q0 -12 -7 -13 q-75 -2 -144 -26 q-35 -11 -42 -16.5 q-7 -5.5 -15 -22.5 q-10 -22 -17 -30 q-7 -8 -34 -62 l-26 -55 l25 -12 q26 -14 53.5 -32.5 q27.5 -18.5 34.5 -22.5 q3 -1 5 1 q2 2 7.5 12.5 q5.5 10.5 13.5 27 q8 16.5 22 49.5 q12 30 10 32.5 q-2 2.5 -29 -9.5 q-93 -36 -93 -15 q0 3 -3 13 q-3 7 0 9.5 q3 2.5 14 4.5 q18 2 64 23 q80 37 95 19 q6 -7 2.5 -19 q-3.5 -12 -27.5 -65 q-33 -75 -39 -92.5 q-6 -17.5 -3 -28.5 q4 -12 33.5 -43.5 q29.5 -31.5 46.5 -41.5 q15 -9 35 -23 q17 -14 53.5 -25.5 q36.5 -11.5 58.5 -11.5 q17 0 31 -8.5 q14 -8.5 10 -18.5 q-3 -7 -24 -13.5 q-21 -6.5 -39 -6.5 q-42 -1 -86.5 10 q-44.5 11 -62.5 27 q-18 14 -40 53 q-38 62 -48 62 q-4 0 -24 -21 q-26 -27 -62 -46 q-36 -19 -60 -19 q-22 0 -5 21 q12 16 36 28 q37 18 62.5 40 q25.5 22 25.5 34 q0 20 -44 44 q-23 11 -41 29 l-18 20 l-25 -39 q-26 -38 -35.5 -60.5 q-9.5 -22.5 -19.5 -35.5 q-15 -19 -34 -53 q-8 -17 -21.5 -24 q-13.5 -7 -18.5 2 q-17 26 12 59 q27 30 66 102 l51 95 q60 106 47 106 q-4 0 -57 -26 l-53 -25 l-16 14 q-14 15 -9 27.5 q5 12.5 15 10.5 q10 -2 70 22 l67 26 q11 5 43 100 q14 39 26 108 q9 65 11 70 Z" /><glyph glyph-name="uni65C5" unicode="&#x65c5;" d="M792 341 q17 11 25.5 14 q8.5 3 29.5 0 q40 -3 41.5 -16 q1.5 -13 -37.5 -25 q-36 -9 -112 -60 l-20 -12 l44 -38 q42 -38 50.5 -55.5 q8.5 -17.5 19 -21.5 q10.5 -4 17.5 -12.5 q7 -8.5 13 -8.5 q6 0 23 -15.5 q17 -15.5 48 -29.5 q21 -10 46.5 -29.5 q25.5 -19.5 25.5 -26.5 q0 -4 -18.5 -14.5 q-18.5 -10.5 -29 -5.5 q-10.5 5 -50.5 17 q-39 13 -72.5 35.5 q-33.5 22.5 -46.5 43.5 l-23 39 q-12 17 -12 24 q0 8 -24.5 38 q-24.5 30 -60.5 65 q-50 49 -50 62.5 q0 13.5 5.5 13.5 q5.5 0 35.5 -30 q30 -30 33.5 -30 q3.5 0 38.5 30.5 q35 30.5 60 47.5 ZM337 426 q4 6 17.5 4 q13.5 -2 21.5 -9 q7 -7 -4.5 -24 q-11.5 -17 -21 -26 q-9.5 -9 -7 -12.5 q2.5 -3.5 35.5 -6.5 q27 -3 40 -10.5 q13 -7.5 23 -25.5 q4 -9 3 -13 q-1 -4 -11 -14 q-16 -15 -32 -65.5 q-16 -50.5 -25.5 -66.5 q-9.5 -16 -9.5 -24.5 q0 -8.5 -8.5 -24 q-8.5 -15.5 -27.5 -66 q-19 -50.5 -26 -51.5 q-8 -1 -23.5 18.5 q-15.5 19.5 -17.5 34.5 q-4 20 -15 35 q-13 18 -19 38 q-6 20 -1 25 q6 7 22 -8.5 q16 -15.5 26 -36.5 q11 -26 18 -18 q7 6 24 55 q13 39 27.5 65.5 q14.5 26.5 14.5 35 q0 8.5 7 22 q7 13.5 10 29.5 q3 12 0.5 16 q-2.5 4 -13.5 8 q-29 13 -37.5 11.5 q-8.5 -1.5 -18.5 -19.5 q-12 -23 -12 -29 q0 -6 -20.5 -29 q-20.5 -23 -51.5 -74 q-24 -38 -48.5 -64.5 q-24.5 -26.5 -103.5 -99.5 q-38 -33 -53 -41.5 q-15 -8.5 -24 1.5 q-13 12 32 46 q21 14 49 42 q28 28 28 32 q0 4 18 26 q18 22 65.5 94 q47.5 72 71.5 97 q30 30 60 93 q12 25 17 30 ZM613 386 q29 18 36 18 q7 0 13 5 q6 5 45.5 21.5 q39.5 16.5 49.5 9.5 q10 -7 30 -16 q9 -6 13.5 -11 q4.5 -5 3.5 -9 q-1 -4 -8 -7 q-7 -3 -7 -10.5 q0 -7.5 -12 -4.5 q-13 2 -52 -9 q-39 -11 -81 -31 q-44 -19 -49 -19 q-10 0 -21 -86 q-3 -21 -4.5 -62 q-1.5 -41 0 -74.5 q1.5 -33.5 2.5 -33.5 q6 0 20 16 q22 23 27 3 q0 -18 -26 -50 q-14 -18 -18 -30 q-3 -11 -16 -10 q-13 1 -29 12 q-11 10 -14.5 17 q-3.5 7 -4.5 28 q-4 32 1.5 53.5 q5.5 21.5 7.5 72 q2 50.5 7.5 78.5 q5.5 28 5.5 59 q0 52 16 70 q4 4 19 -7 l16 -11 l29 18 ZM540 599 q-14 16 -8.5 22.5 q5.5 6.5 26 3 q20.5 -3.5 30.5 -11.5 q11 -10 16 -29.5 q5 -19.5 0 -31 q-5 -11.5 -8.5 -31 q-3.5 -19.5 -10.5 -32.5 q-10 -14 -1 -14 q5 2 19 7 q41 19 95 33 q44 9 63 16 q23 9 52.5 13 q29.5 4 33.5 1 q5 -5 -4.5 -23.5 q-9.5 -18.5 -18.5 -18.5 q-9 0 -31 -4.5 q-22 -4.5 -77 -14.5 q-55 -10 -95 -29.5 q-40 -19.5 -82 -28.5 q-42 -9 -55 -1 q-8 7 -5.5 15.5 q2.5 8.5 14.5 9 q12 0.5 33 6.5 l23 5 l1 61 q3 43 1.5 53.5 q-1.5 10.5 -11.5 23.5 ZM256 621 q15 42 85 -25 q3 -2 3 -46 l0 -44 l30 2 q30 0 68 4 q28 3 34.5 1.5 q6.5 -1.5 13.5 -11.5 q8 -14 7 -15 q-17 -10 -65 -13 q-29 0 -74.5 -7 q-45.5 -7 -52.5 -11 q-6 -4 -53 -21 l-84 -30 q-35 -12 -59 -12 q-20 0 -46.5 9 q-26.5 9 -26.5 16 q0 6 15 10.5 q15 4.5 71 20.5 l84 22 q42 13 57 13 q28 0 25 10 q0 1 -1 2 q-16 10 -27 56.5 q-11 46.5 -4 68.5 Z" /><glyph glyph-name="uni65E5" unicode="&#x65e5;" d="M301 415 q-1 16 -17.5 33.5 q-16.5 17.5 -19 30 q-2.5 12.5 -13 17.5 q-10.5 5 -7.5 10.5 q3 5.5 14.5 3 q11.5 -2.5 29.5 -5.5 q16 -3 43.5 -25.5 q27.5 -22.5 34.5 -40.5 q7 -19 9 -54 q0 -25 1.5 -31 q1.5 -6 8.5 -6 q12 0 52.5 15 q40.5 15 47.5 20 q7 8 55.5 11 q48.5 3 59.5 -3 q11 -6 11 -23.5 q0 -17.5 -16 -24.5 q-16 -7 -69 -11 q-54 -4 -101 -10 l-46 -6 l-1 -22 q-2 -34 4 -74.5 q6 -40.5 13 -58.5 q6 -8 -1 -21.5 q-7 -13.5 -2 -17.5 q6 -6 26.5 3 q20.5 9 37.5 23 q20 16 36.5 13.5 q16.5 -2.5 64.5 -2.5 l49 -2 l0 -18 q0 -17 -7.5 -23 q-7.5 -6 -60 -11 q-52.5 -5 -58 -10.5 q-5.5 -5.5 -33.5 -8.5 q-19 -2 -26 0 q-7 2 -15 11 q-14 14 -27 14 q-13 0 -22.5 9 q-9.5 9 -17 10 q-7.5 1 -24.5 13.5 q-17 12.5 -16 33.5 q1 21 0 31.5 q-1 10.5 5 66.5 q9 70 -3 141 ZM561 632 q61 8 89.5 3.5 q28.5 -4.5 71.5 -25.5 q25 -13 32 -29 q6 -16 1.5 -54.5 q-4.5 -38.5 -14.5 -54.5 q-8 -10 -8 -25 q0 -15 -5 -28 q-15 -38 -21 -160 q-6 -122 1 -223 q3 -34 2.5 -44.5 q-0.5 -10.5 -6.5 -17.5 q-10 -12 -14 -12 q-4 0 -18 23 q-14 23 -27 35.5 q-13 12.5 -13 17.5 q0 5 -18 25 q-23 25 -16 27 q5 0 21 -7 q32 -17 39 -3 q0 1 -1 5 q-1 6 5.5 58.5 q6.5 52.5 4.5 213.5 q-1 117 -5 157 q-4 40 -14 52 q-9 13 -41 11 q-32 -2 -71 -17 q-17 -7 -73.5 -15 q-56.5 -8 -73.5 -5 q-22 3 -41 11.5 q-19 8.5 -23 17.5 q-3 12 -9 12 q-6 0 -6 4.5 q0 4.5 25 6.5 q25 2 107.5 19.5 q82.5 17.5 118.5 20.5 Z" /><glyph glyph-name="uni6708" unicode="&#x6708;" d="M497 456 q87 3 121 -4 q11 -1 14.5 -4 q3.5 -3 3.5 -13 q0 -36 -99 -35 q-66 2 -73 9 q-7 7 -11.5 7 q-4.5 0 -18.5 11 q-11 10 -11.5 12.5 q-0.5 2.5 6.5 8.5 q8 7 68 8 ZM335 519 q6 14 35 -2 q20 -13 24.5 -27.5 q4.5 -14.5 2.5 -56.5 q-2 -38 -9.5 -94 q-7.5 -56 -11.5 -66 q-3 -7 1 -10 q4 -3 28 4 q24 7 46 17 q18 9 76.5 27 q58.5 18 74.5 21 q16 3 53.5 -3.5 q37.5 -6.5 39 -15 q1.5 -8.5 -7.5 -12 q-9 -3.5 -29.5 -12.5 q-20.5 -9 -28.5 -9 q-8 0 -109.5 -31 q-101.5 -31 -111.5 -31 q-10 0 -22 8.5 q-12 8.5 -12 3 q0 -5.5 -8 -62.5 q-21 -157 -52 -174 q-10 -6 -12.5 -5 q-2.5 1 -2.5 6 q0 9 -12 13 q-12 4 -20.5 14.5 q-8.5 10.5 -19.5 10.5 q-11 0 -20 6 q-11 7 14 26 q14 9 27.5 11.5 q13.5 2.5 18.5 7 q5 4.5 12 18.5 q8 22 11.5 56.5 q3.5 34.5 9.5 45.5 q5 18 16.5 110 q11.5 92 11.5 128 q1 34 -7.5 52.5 q-8.5 18.5 -5.5 25.5 ZM398 602 q38 1 106.5 15 q68.5 14 126 11.5 q57.5 -2.5 75.5 -8.5 q21 -7 40 -22.5 q19 -15.5 26 -30.5 q8 -18 1 -49 q-19 -91 -22 -156 q-3 -65 1 -277 q0 -57 -2.5 -74 q-2.5 -17 -18.5 -35 q-14 -18 -43 9 q-20 16 -57.5 35 q-37.5 19 -60 41 q-22.5 22 -27 22 q-4.5 0 -4.5 5 q0 6 5 7.5 q5 1.5 13 -1 q8 -2.5 17 -9.5 q21 -12 32.5 -12 q11.5 0 36 -8.5 q24.5 -8.5 43.5 -2.5 l19 7 l2 56 q5 56 7 210 q2 154 5 186 q5 60 -20 77 q-11 7 -55 8 q-32 0 -53.5 -5 q-21.5 -5 -67.5 -23 q-91 -36 -145 -22 q-15 5 -32.5 16.5 q-17.5 11.5 -17.5 16.5 q0 12 70 13 Z" /><glyph glyph-name="uni671F" unicode="&#x671f;" d="M336 43 q32 19 32 5 q0 -3 -4 -8 q-6 -9 -11.5 -22 q-5.5 -13 -40.5 -39.5 q-35 -26.5 -41 -36.5 q-3 -6 -7 -6.5 q-4 -0.5 -24 4.5 q-30 10 -32 16 q0 3 4 7 q23 18 124 80 ZM425 58 q3 6 20.5 6 q17.5 0 24.5 -12 q4 -5 7.5 -27 q3.5 -22 3.5 -38 q0 -16 -3 -19 q-7 0 -25.5 11.5 q-18.5 11.5 -21.5 16.5 q-4 14 -6.5 36 q-2.5 22 0.5 26 ZM630 458 q8 3 11.5 2.5 q3.5 -0.5 10.5 -9.5 q13 -14 16.5 -81.5 q3.5 -67.5 -6.5 -121.5 q-6 -33 -4 -35 q4 -4 -16 -105 q-7 -28 -26 -49 q-19 -21 -41 -22 q-8 -1 -11 1.5 q-3 2.5 -4 13.5 q-2 17 16 45 q28 46 44 144 q7 55 6 116.5 q-1 61.5 -9 78.5 q-8 15 -1 17.5 q7 2.5 14 4.5 ZM793 559 q41 13 56.5 13 q15.5 0 29.5 -14 q14 -16 16.5 -48.5 q2.5 -32.5 -4.5 -49 q-7 -16.5 -7 -78 q0 -61.5 9 -69.5 q10 -13 12 -27 q2 -14 -7 -19 q-5 -5 -6 -16 q-1 -11 1 -54 q4 -65 8 -108.5 q4 -43.5 7 -83 q3 -39.5 6 -56.5 q1 -4 1 -7.5 q0 -3.5 0 -6.5 q0 -3 0 -3 q-7 0 -38.5 24.5 q-31.5 24.5 -35.5 32.5 q-6 10 -5 13.5 q1 3.5 8 7.5 q8 7 14 5 q10 -6 12 19 q5 37 -7 86 q-7 32 -7 84 q0 44 -6 49 q-6 5 -50 -7 q-32 -10 -58 -6 q-31 4 -31 10 q-2 7 45 25 l65 28 l27 11 l-1 32 q-2 33 -7 37.5 q-5 4.5 -44.5 -10 q-39.5 -14.5 -65.5 -11.5 q-11 1 -17 2.5 q-6 1.5 -9.5 3 q-3.5 1.5 -3 4 q0.5 2.5 1.5 7.5 q6 7 51 27 q45 20 63 23 q24 4 27.5 11 q3.5 7 -1.5 42 q0 3 0 9 q-2 29 -12.5 31 q-10.5 2 -71.5 -13 q-9 -3 -15 -4 q-34 -9 -56 -13 q-22 -4 -36 -5 q-14 -1 -20.5 2.5 q-6.5 3.5 -6.5 12.5 q0 8 64.5 26.5 q64.5 18.5 104.5 30.5 ZM422 628 q-5 24 -1.5 32 q3.5 8 13.5 4 q75 -22 75 -75 q0 -23 -7 -36 q-7 -13 -10.5 -40 q-3.5 -27 -6.5 -46 l-2 -18 l18 1 q17 3 26 -10.5 q9 -13.5 6 -16 q-3 -2.5 -26 -4 q-23 -1.5 -26 -4.5 q-8 -7 -17 -115.5 q-9 -108.5 -4 -122.5 q3 -6 49 -1 q35 4 45 1 q10 -3 10 -15 q0 -6 -30 -11 q-30 -5 -50 -3 q-18 1 -24.5 -6.5 q-6.5 -7.5 -6.5 -31.5 l0 -27 l-19 20 q-21 19 -21 25 q0 6 -8 6 q-8 0 -16.5 -5 q-8.5 -5 -56 -20.5 q-47.5 -15.5 -73.5 -30 q-26 -14.5 -58 -25 q-32 -10.5 -45 -17.5 q-12 -6 -41.5 1 q-29.5 7 -29.5 17 q0 10 11 12 q24 6 99.5 31 q75.5 25 75.5 27 q2 3 -17 21 l-16 18 l-3 74 q-4 73 -2 87 q5 21 -3 28 q-8 7 -37 10 q-67 5 -67 31 q0 11 13 14.5 q13 3.5 48 3.5 q27 0 28.5 8.5 q1.5 8.5 -17.5 66.5 q-22 76 -14 76 q5 0 34 -8.5 q29 -8.5 35 -19 q6 -10.5 11 -14.5 q10 -8 14 -28 q4 -20 -1 -34 q-9 -25 -1 -30 q8 -5 51 -3 q53 1 80 10 l25 7 l2 56 q2 84 -12 130 ZM431 377 q3 31 -1.5 34.5 q-4.5 3.5 -19 -3 q-14.5 -6.5 -45.5 -10.5 q-24 -3 -54 -10 q-30 -7 -33 -9 q-3 -3 -2 -36.5 q1 -33.5 4 -36.5 q1 -2 46.5 16.5 q45.5 18.5 73.5 21.5 l27 2 l4 31 ZM427 271 q-2 24 -4 28 q-2 4 -13 5 q-14 0 -52 -10.5 q-38 -10.5 -60 -12.5 q-17 -3 -20.5 -6 q-3.5 -3 -4.5 -18 q-6 -42 7 -42 q7 0 46 18 q33 15 60 20 q27 5 31 -5 q7 -19 10 -1 q1 8 0 24 ZM422 205 q0 13 -1 16.5 q-1 3.5 -10 3.5 q-11 -2 -38.5 -14 q-27.5 -12 -52.5 -14 q-24 -3 -31 -11.5 q-7 -8.5 -7 -33.5 q0 -28 2.5 -28 q2.5 0 52 13 q49.5 13 63.5 16 q13 3 17 13.5 q4 10.5 5 38.5 Z" /><glyph glyph-name="uni6731" unicode="&#x6731;" d="M541 278 q12 5 23.5 -0.5 q11.5 -5.5 34.5 -27.5 q35 -32 57.5 -43.5 q22.5 -11.5 39.5 -29.5 q17 -18 45 -30 q28 -12 42 -22.5 q14 -10.5 31 -11.5 q35 -3 53 -20 q7 -7 24 -10 q37 -8 14 -31 q-10 -9 -15.5 -10.5 q-5.5 -1.5 -21.5 1.5 q-24 2 -61 5 q-90 10 -153 98 q-21 30 -70 73 q-56 49 -46 57 q1 2 3 2 ZM209 542 q14 33 19.5 61.5 q5.5 28.5 13 35 q7.5 6.5 12.5 6.5 q8 0 22.5 -11.5 q14.5 -11.5 26.5 -25.5 q14 -18 15 -31.5 q1 -13.5 -10 -15.5 q-10 -3 -28.5 -36 q-18.5 -33 -42 -57.5 q-23.5 -24.5 -28 -31.5 q-4.5 -7 -16 -3 q-11.5 4 -11.5 27 q0 18 3.5 30 q3.5 12 23.5 52 ZM473 692 q3 3 29 -0.5 q26 -3.5 37 -9.5 q17 -9 22 -17.5 q5 -8.5 1 -26.5 q-3 -21 -4.5 -54 q-1.5 -33 -5.5 -42 q-2 -5 1 -7 q3 -2 14 -2 q18 0 52 7 q29 4 40.5 0.5 q11.5 -3.5 7.5 -16.5 q-5 -19 -61 -24 q-43 -4 -54 -9.5 q-11 -5.5 -14 -26.5 q-4 -24 -9 -48.5 q-5 -24.5 0.5 -30 q5.5 -5.5 105.5 -5.5 q100 0 109 -8 q5 -6 4.5 -9.5 q-0.5 -3.5 -9.5 -13.5 q-19 -24 -77 -4 q-43 14 -106 8 q-24 -1 -28 -4 q-4 -3 -8 -17 q-6 -18 -11 -83.5 q-5 -65.5 -13 -102.5 q-13 -61 -4 -189 q2 -40 -3 -46 q-6 -7 -11 -7 q-5 0 -5 7 q0 7 -11 15 q-12 7 -15.5 25.5 q-3.5 18.5 4.5 28.5 q8 8 10.5 57.5 q2.5 49.5 7.5 118.5 q10 125 -3 129 q-5 3 -22.5 -24.5 q-17.5 -27.5 -41.5 -52.5 q-24 -25 -24 -28 q0 -7 -37.5 -48.5 q-37.5 -41.5 -71.5 -69.5 q-48 -42 -66 -42 q-25 0 6 30 q3 2 7 7 q47 43 134 145 q25 31 31 36.5 q6 5.5 15 23 q9 17.5 23.5 38.5 q14.5 21 10.5 21 q-15 0 -61.5 -17.5 q-46.5 -17.5 -92.5 -41.5 q-24 -12 -42 -13.5 q-18 -1.5 -33 -12.5 q-15 -11 -31 -7.5 q-16 3.5 -38 7.5 q-45 7 -45 28 q1 19 24 24 q91 18 129 32 q54 18 116 29 q87 17 102 22 q15 5 15 17 q0 14 6.5 50 q6.5 36 2.5 40 q-9 7 -94 -21 q-22 -8 -31.5 -9 q-9.5 -1 -23.5 5 q-21 7 -31.5 16 q-10.5 9 -4 16 q6.5 7 21.5 10 q73 11 125 22 q32 6 37.5 9.5 q5.5 3.5 7.5 15.5 q1 17 -7 44 q-6 21 -9.5 61.5 q-3.5 40.5 0.5 44.5 Z" /><glyph glyph-name="uni6797" unicode="&#x6797;" d="M271 588 q-10 21 -6.5 36.5 q3.5 15.5 5 15.5 q1.5 0 29.5 -11 q45 -17 62 -48.5 q17 -31.5 14 -89.5 q-1 -44 -10 -60 q-7 -15 -4 -18.5 q3 -3.5 19 0.5 q11 3 15.5 1.5 q4.5 -1.5 15.5 -12.5 q14 -18 14 -21 q0 -3 -24 -20 q-24 -17 -29 -17 q-7 0 -17.5 -21 q-10.5 -21 -14.5 -42 q-4 -34 1 -40.5 q5 -6.5 39 -6.5 q51 0 87 -20 q36 -20 36 -48 q-1 -11 -5 -12.5 q-4 -1.5 -23 -1.5 q-19 0 -27 3.5 q-8 3.5 -27 21.5 q-15 13 -34 25.5 q-19 12.5 -33 17.5 q-14 5 -15 1 q-3 -6 -5 -68 q-9 -188 -17 -213 q-8 -21 -50 7 q-24 16 -30 16 q-10 0 -30 26 q-20 26 -20 38 q0 16 2.5 16 q2.5 0 36 -21.5 q33.5 -21.5 39.5 -13.5 q7 7 16 154 l3 57 l-47 -50 q-47 -48 -55 -60 q-8 -12 -45 -45.5 q-37 -33.5 -40 -36.5 q-7 -8 -31 -26 q-24 -18 -35 -24 q-16 -8 -26 -2 q-6 5 -6 8.5 q0 3.5 6 16.5 q9 19 100.5 111 q91.5 92 104 109 q12.5 17 43.5 57.5 q31 40.5 29 42 q-2 1.5 -55 -22.5 q-66 -29 -84 -33.5 q-18 -4.5 -37 4.5 q-44 19 -54 53 q-4 14 -1.5 16.5 q2.5 2.5 16.5 -5.5 q10 -4 21.5 2 q11.5 6 58 10.5 q46.5 4.5 84.5 19.5 q38 15 50 20 q8 1 10 8.5 q2 7.5 3 32.5 q2 37 -5.5 90.5 q-7.5 53.5 -17.5 72.5 ZM687 663 q4 19 6 19 q7 0 46 -38 q39 -38 42 -46 q3 -11 1 -30 q-2 -19 -8 -25 q-3 -6 -8 -64 q-3 -39 -2 -47 q1 -8 8 -8 q11 0 21 6.5 q10 6.5 49 9.5 q39 3 49 -8 q22 -20 -20 -28 q-19 -2 -45.5 -9.5 q-26.5 -7.5 -40.5 -7.5 q-19 0 -23 -10.5 q-4 -10.5 -6 -49.5 l-1 -50 l16 -3 q14 -3 38.5 -22.5 q24.5 -19.5 42.5 -38.5 q13 -17 38 -34 q25 -17 47 -35.5 q22 -18.5 39 -24.5 q17 -6 23 -14 q10 -18 -22 -21 q-11 -1 -27 -1 q-41 0 -70 14 q-21 11 -28.5 19 q-7.5 8 -20.5 33 q-19 36 -39.5 64 q-20.5 28 -29.5 43 l-7 16 l-5 -35 q-3 -35 -0.5 -42 q2.5 -7 -3.5 -64 q-16 -138 -3 -184 q7 -22 1 -28.5 q-6 -6.5 -23 3.5 q-16 9 -24 9 q-10 0 -42.5 33 q-32.5 33 -26.5 39 q3 3 23 -7 q20 -10 32 -13 q8 -3 10.5 -1 q2.5 2 2.5 15 q0 11 1.5 14.5 q1.5 3.5 5.5 1.5 q2 -1 3.5 1 q1.5 2 2 11 q0.5 9 0.5 23.5 q0 14.5 -1 39.5 q-3 150 -12 150 q-6 0 -22 -26.5 q-16 -26.5 -24 -48.5 q-10 -23 -23.5 -40 q-13.5 -17 -58.5 -64 l-54 -54 l-9 11 q-11 14 -8 30 q3 16 18 29 q43 40 84 103 q19 31 55.5 104.5 q36.5 73.5 32.5 76.5 q-2 3 -40 -12 q-38 -15 -56 -25 q-33 -20 -77 -10 q-20 4 -38 17.5 q-18 13.5 -18 20.5 q0 4 30 4 q30 0 122 26.5 q92 26.5 93.5 28 q1.5 1.5 3.5 89 q2 87.5 -7 100.5 q-19 30 -13 65 Z" /><glyph glyph-name="uni6D77" unicode="&#x6d77;" d="M89 437 q5 5 20.5 1.5 q15.5 -3.5 25.5 -12.5 q11 -7 25 -35 l14 -28 l0 -122 q0 -121 3 -121 q3 0 36 36 l35 36 l-4 -21 q-3 -19 -21 -51 q-13 -26 -27 -56.5 q-14 -30.5 -14 -36.5 q0 -4 -12.5 -21 q-12.5 -17 -8.5 -31 q6 -12 3 -17.5 q-3 -5.5 -12.5 -2 q-9.5 3.5 -9.5 -2.5 q0 -14 -23 7 q-12 13 -19 13 q-7 0 -16 9 q-18 20 20 47 q22 15 29 26 q10 14 11.5 76.5 q1.5 62.5 -5.5 98.5 q-18 95 -48 151 q-22 42 -2 56 ZM796 471 q30 10 43 -6 q13 -16 8 -58 q-5 -37 -12 -48 q-7 -11 -9 -43 l-2 -33 l25 -5 q25 -7 56 -10 q21 -3 28 -6.5 q7 -3.5 17 -14.5 q12 -17 6.5 -20.5 q-5.5 -3.5 -46.5 -4.5 q-28 0 -36 2 q-8 2 -20 12 q-35 32 -50 -4 q-7 -19 -7 -32 q0 -13 -10 -28.5 q-10 -15.5 -13.5 -35 q-3.5 -19.5 -4.5 -30.5 q-3 -7 1.5 -9.5 q4.5 -2.5 25.5 -3.5 q29 -3 40 -10 q9 -5 13.5 -17 q4.5 -12 0.5 -16 q-5 -5 -32.5 -7.5 q-27.5 -2.5 -40.5 1.5 q-18 4 -21 1 q-4 -4 -14.5 -58.5 q-10.5 -54.5 -10.5 -68.5 q0 -25 -12 -39 q-2 -3 -20 14.5 q-18 17.5 -35.5 37 q-17.5 19.5 -16.5 21.5 q3 5 24 -0.5 q21 -5.5 25 1.5 q3 6 14 48 q11 42 11 50 q0 6 -15 7 q-15 1 -40.5 -3 q-25.5 -4 -54.5 -12 q-17 -6 -73 -10 q-56 -4 -95 -10 q-28 -4 -35 -3.5 q-7 0.5 -14 7.5 q-11 10 -15.5 29.5 q-4.5 19.5 2.5 32.5 q7 14 14 16.5 q7 2.5 10 23 q3 20.5 24 43.5 q21 23 19 26 q-2 3 -39 -3 q-80 -12 -103 3 q-12 7 -12.5 13.5 q-0.5 6.5 7.5 22.5 q6 13 9.5 14.5 q3.5 1.5 18.5 -7.5 q16 -7 42 -3.5 q26 3.5 72 9.5 l47 6 l13 32 q17 42 50.5 96 q33.5 54 54.5 73 q13 11 20 13.5 q7 2.5 32 0.5 q103 -7 136 3 ZM769 349 q0 48 -3.5 55 q-3.5 7 -21.5 4 q-10 -1 -39.5 -4.5 q-29.5 -3.5 -32 -12 q-2.5 -8.5 -14.5 -19.5 l-9 -12 l12 0 q13 -1 17 0.5 q4 1.5 20 -2.5 q11 -3 12 -3 l-8 -6 q-9 -3 -9.5 -5 q-0.5 -2 5.5 -12 q8 -12 5 -21 q-3 -9 2 -23 q1 -10 5 -11.5 q4 -1.5 23 -0.5 q23 3 29 8 q6 5 7 65 ZM646 296 q-4 11 -7.5 35.5 q-3.5 24.5 -8.5 24.5 q-8 0 -39 -44 q-31 -44 -31 -55 q3 -2 19 -1 q16 1 37 3 q21 2 27 3 q14 6 3 34 ZM758 229 q1 11 -4 13 q-5 2 -16 -2 q-10 -4 -29 -6 q-13 0 -19 -2.5 q-6 -2.5 -13 -13.5 q-12 -17 -10.5 -22.5 q1.5 -5.5 18.5 -11.5 q20 -4 33 -14.5 q13 -10.5 20 -7.5 q13 4 20 67 ZM642 219 l-20 0 q-20 0 -29 -3 l-40 -7 q-19 -4 -28 -10.5 q-9 -6.5 -30 -27.5 q-30 -32 -32.5 -51.5 q-2.5 -19.5 -5.5 -26.5 q-3 -6 56 -6.5 q59 -0.5 126 3.5 q67 4 85 11 q7 2 7 12.5 q0 10.5 -18 10.5 q-20 0 -41.5 11 q-21.5 11 -28.5 25 q-8 14 -4 37 l3 22 ZM154 586 q3 -3 17 1 q14 4 18 4 q5 2 19.5 -10 q14.5 -12 14.5 -18 q0 -5 10 -11 q10 -5 9 -11.5 q-1 -6.5 -13 -19.5 q-12 -11 -21 -12.5 q-9 -1.5 -48 -1.5 q-55 0 -65.5 4.5 q-10.5 4.5 -32 10.5 q-21.5 6 -21.5 9.5 q0 3.5 12 14 q12 10.5 22 16.5 q12 6 45 15.5 q33 9.5 34 8.5 ZM762 612 q22 5 28 5 q11 1 34 -15 q23 -16 23 -25 q0 -4 -16.5 -10 q-16.5 -6 -32.5 -13 q-16 -7 -28 -7 q-5 0 -63 -15 q-58 -15 -79 -22 q-5 -1 -19 10 q-11 8 -13 17.5 q-2 9.5 5 11.5 q78 23 85 31 q7 9 32.5 19.5 q25.5 10.5 43.5 12.5 ZM566 698 q4 14 7.5 17.5 q3.5 3.5 14.5 3.5 q17 0 32 -14 q15 -14 22 -37 q4 -16 3 -20.5 q-1 -4.5 -10 -12.5 q-14 -10 -14 -15.5 q0 -5.5 -17 -25 q-17 -19.5 -29.5 -38.5 q-12.5 -19 -28.5 -29 q-16 -10 -16 -15.5 q0 -5.5 -5 -5.5 q-5 0 -6 10.5 q-1 10.5 4 27.5 q5 17 12 35 q13 29 21.5 59 q8.5 30 5.5 36 q-3 4 4 24 Z" /><glyph glyph-name="uni6E38" unicode="&#x6e38;" d="M435 403 q8 19 9 19 q1 0 20 -9 q19 -9 26 -16 q7 -7 8 -19 q1 -12 24 -19 q18 -5 34 -18.5 q16 -13.5 16 -23.5 q0 -8 -14.5 -18 q-14.5 -10 -30 -47.5 q-15.5 -37.5 -29.5 -60 q-14 -22.5 -21 -45.5 q-7 -23 -28.5 -61 q-21.5 -38 -21.5 -47 q0 -9 -6.5 -6 q-6.5 3 -15 6.5 q-8.5 3.5 -11 15 q-2.5 11.5 -28 37 q-25.5 25.5 -25.5 31.5 q0 6 -3 19 q-2 8 -1.5 9 q0.5 1 7.5 -5 q11 -8 27 -16 q16 -8 25 -8 q10 0 40.5 51.5 q30.5 51.5 41 76.5 q10.5 25 19.5 44.5 q9 19.5 7 24 q-2 4.5 -28 9.5 q-19 4 -23.5 3.5 q-4.5 -0.5 -10.5 -7.5 l-38 -49 q-32 -42 -66.5 -77.5 q-34.5 -35.5 -42.5 -35.5 q-34 0 42 93 q10 12 21 26 q39 46 49.5 62.5 q10.5 16.5 6.5 30.5 q-1 13 1 13 q2 0 5 0 q4 -1 7.5 2.5 q3.5 3.5 7.5 14.5 ZM726 435 q63 20 63 8 q0 -4 -7.5 -12.5 q-7.5 -8.5 -13.5 -8.5 q-4 0 -29 -16 q-25 -16 -25 -19 q0 -4 15 -19 q24 -23 29 -9 q2 2 2 5 q0 7 38 39 q26 21 34.5 26 q8.5 5 21.5 2 q30 -6 30 -34 q0 -10 -7 -17 q-7 -7 -33 -25 q-42 -26 -59 -33 q-29 -12 -22 -51 q1 -14 5 -16.5 q4 -2.5 20 -5.5 q24 -4 36.5 0.5 q12.5 4.5 57 2 q44.5 -2.5 50.5 -11.5 q6 -9 -4 -16 q-10 -7 -19 -4.5 q-9 2.5 -75 2.5 l-67 0 l-4 -42 q-3 -42 -2.5 -112.5 q0.5 -70.5 -7.5 -86.5 q-18 -36 -60 -15 q-14 7 -30.5 11 q-16.5 4 -29 12.5 q-12.5 8.5 -21 11.5 q-8.5 3 -5.5 14 q2 7 8 8.5 q6 1.5 33 1.5 q39 0 49 7 q21 15 22 122 q2 50 -2.5 55.5 q-4.5 5.5 -36.5 -8.5 q-20 -10 -27 -10 q-7 0 -30.5 -8 q-23.5 -8 -41.5 -4 q-10 1 -21.5 7.5 q-11.5 6.5 -17 14 q-5.5 7.5 -2.5 10.5 q11 8 120 25 l56 9 l0 28 q-1 21 -13.5 60 q-12.5 39 -19.5 39 q-4 0 -24.5 -10 q-20.5 -10 -23.5 -2 q-3 8 -10 8 q-4 0 -13 14.5 q-9 14.5 -9 21.5 q0 3 19 3 q19 0 41.5 8.5 q22.5 8.5 62.5 19.5 ZM72 404 q-8 20 -5 32 q3 12 5 12 q7 0 28 -14 q21 -14 38 -30 l25 -25 l3 -41 q2 -39 -1 -68 q-3 -20 -3.5 -44.5 q-0.5 -24.5 0 -42 q0.5 -17.5 1.5 -17.5 q5 0 25 24 q20 24 33 42 q10 15 15.5 16.5 q5.5 1.5 10.5 -8.5 q6 -8 -9 -35 l-23 -42 q-7 -14 -14 -21.5 q-7 -7.5 -37 -68.5 q-30 -61 -27 -78 q3 -9 1.5 -12 q-1.5 -3 -8.5 -3 q-10 0 -11 -7 q-5 -11 -24 15 q-11 16 -13 27 q-4 20 -7.5 22.5 q-3.5 2.5 -0.5 43.5 q0 10 2 11 q2 1 13 -3 q11 -4 16 -2.5 q5 1.5 15 14 q10 12.5 12 19.5 q2 7 -1 28 q-5 63 -22.5 138.5 q-17.5 75.5 -36.5 117.5 ZM162 604 q6 9 11 -1 q2 -4 2 -10 q0 -10 18 -10 q11 0 14 -1 q3 -1 1 -7 q-3 -10 4 -15 q7 -6 15 -22 q8 -16 8 -23 q0 -7 -13.5 -10 q-13.5 -3 -25.5 -8.5 q-12 -5.5 -47 5.5 q-35 11 -38.5 18 q-3.5 7 -12.5 9 q-13 3 -16.5 12 q-3.5 9 3.5 20 q6 14 30.5 28.5 q24.5 14.5 33.5 12.5 q10 -3 13 2 ZM334 637 q11 9 45 -4 q34 -13 50 -33 q9 -11 21 -49.5 q12 -38.5 9 -46.5 q-2 -7 8 -10 q11 -3 66 -9 q43 -4 50 -2.5 q7 1.5 10 15.5 q3 18 23.5 58 q20.5 40 27.5 60 q2 8 5 12 q3 4 6 3 q5 -3 12 -4 q20 -2 38 -18 q18 -16 18 -30 q0 -8 -14.5 -17 q-14.5 -9 -14.5 -14 q0 -5 -11 -20 q-11 -15 -7.5 -18.5 q3.5 -3.5 46.5 11.5 q43 15 50 20 q7 7 24 7 q17 0 34 6 q11 4 15 3.5 q4 -0.5 10 -9.5 q13 -16 -2 -27.5 q-15 -11.5 -74 -29.5 q-84 -27 -109 -10 q-12 9 -25.5 2 q-13.5 -7 -24.5 -16 q-10 -8 -41 -9.5 q-31 -1.5 -63 5.5 q-19 4 -27.5 3.5 q-8.5 -0.5 -29.5 -10.5 q-28 -13 -35 -13 q-9 0 -38 -12.5 q-29 -12.5 -42 -20.5 q-14 -10 -52.5 -11.5 q-38.5 -1.5 -44.5 -6.5 q-5 -5 -18.5 8 q-13.5 13 -25.5 35 q-10 20 -8.5 22 q1.5 2 23.5 -7 q48 -16 112 3 q34 10 65.5 15.5 q31.5 5.5 31.5 8.5 q0 3 -27 34 q-29 33 -51 75 q-22 42 -15 51 Z" /><glyph glyph-name="uni73C9" unicode="&#x73c9;" d="M196 459 q11 8 32.5 0.5 q21.5 -7.5 40.5 -23.5 q8 -7 29 -5 q15 3 20 1 q5 -2 10 -11 q10 -10 9 -13.5 q-1 -3.5 -9 -11.5 q-11 -11 -30 -22 q-16 -9 -19.5 -17.5 q-3.5 -8.5 -8.5 -50.5 q-3 -29 1.5 -33 q4.5 -4 33.5 6 q25 7 29 4 q2 -3 -7.5 -18.5 q-9.5 -15.5 -24.5 -32.5 q-33 -34 -103 -59 q-34 -14 -56.5 -27 q-22.5 -13 -25.5 -13 q-3 0 -28 25 q-22 22 -20 31.5 q2 9.5 34 19.5 q25 7 41.5 18.5 q16.5 11.5 16.5 19.5 q0 7 9 11 q4 2 6.5 17.5 q2.5 15.5 -0.5 30.5 q-3 15 -7 14 q-8 -1 -31 -7.5 q-23 -6.5 -37 0.5 q-53 25 42 66 l37 17 l3 28 q4 27 13 35 ZM233 584 q5 4 40.5 4 q35.5 0 47.5 -5 q27 -9 14 -39 q-7 -14 -34.5 -19.5 q-27.5 -5.5 -71.5 -20.5 q-33 -9 -41.5 -10 q-8.5 -1 -25.5 5 q-17 5 -40.5 24.5 q-23.5 19.5 -23.5 27.5 q0 5 20 5 q18 0 64 11 q46 11 51 17 ZM556 613 q92 30 100 39 q8 9 51 9.5 q43 0.5 45.5 3.5 q2.5 3 16.5 -6 q14 -9 20 -16 q12 -15 3 -37.5 q-9 -22.5 -27 -22.5 q-8 0 -28 -26.5 q-20 -26.5 -27 -26.5 q-7 0 -26 -17.5 q-19 -17.5 -25 -28.5 q-7 -11 -13.5 -11 q-6.5 0 -13 -8.5 q-6.5 -8.5 -18 -8.5 q-11.5 0 -24.5 -6.5 q-13 -6.5 -54 -22.5 q-33 -12 -38.5 -20 q-5.5 -8 -11.5 -54 q-3 -30 2 -27 q48 23 92 42 l20 9 l-7 19 q-9 22 -8 31 q1 9 13 9 q15 0 35 -22 q14 -15 20 -18 q6 -3 19 -2 q77 17 83 10 q16 -15 -35 -39 q-12 -4 -26 -10 q-22 -6 -25 -7 q-8 -5 36 -102 q44 -97 68 -125 q13 -15 13 -19 q0 -4 30 -42.5 q30 -38.5 42 -48.5 q28 -25 42 -6 q7 10 15 5 q8 -5 8 -20 q0 -16 5.5 -27 q5.5 -11 2.5 -22 q-2 -10 -13 -10.5 q-11 -0.5 -46 5.5 q-42 8 -134 174 l-52 92 q-14 23 -39 75.5 q-25 52.5 -33 52.5 q-16 0 -114 -58 l-34 -20 l0 -61 l0 -59 l15 1 q9 0 11.5 -2.5 q2.5 -2.5 2.5 -12.5 q0 -15 -14 -34 l-25 -30 l-7 -13 l-30 22 q-30 25 -26 33.5 q4 8.5 5.5 35 q1.5 26.5 7 79.5 q5.5 53 2 73 q-3.5 20 1.5 25 q5 6 16.5 63.5 q11.5 57.5 15.5 93.5 q1 29 3 33 q2 4 12 1 q29 -7 40.5 -13 q11.5 -6 10.5 -12 q-2 -5 1 -6.5 q3 -1.5 11 1.5 q15 3 20.5 9 q5.5 6 18.5 13 q15 4 40 5 q12 2 21.5 26.5 q9.5 24.5 20.5 42.5 q19 27 11 27 q-4 0 -66.5 -19 q-62.5 -19 -73.5 -22 q-21 -11 -45 2 q-7 2 -6 5 q3 7 -4 10 q-10 4 12 14 q21 7 88 30 Z" /><glyph glyph-name="uni7559" unicode="&#x7559;" d="M665 312 q6 7 91 -17 q13 -4 13 -21 q-2 -28 -23 -91 q-9 -28 -14 -65 q-5 -37 -10.5 -72.5 q-5.5 -35.5 -5.5 -69 q0 -33.5 -11.5 -47 q-11.5 -13.5 -23.5 -7.5 q-16 5 -37.5 33 q-21.5 28 -28.5 51 q-3 9 -20 8 q-60 -3 -131 -20 q-33 -7 -50.5 -9.5 q-17.5 -2.5 -23.5 -8 q-6 -5.5 -25 -10 q-19 -4.5 -33.5 8 q-14.5 12.5 -20.5 12.5 q-25 0 -36 55 q-7 41 -26 97.5 q-19 56.5 -30 71.5 l-13 20 l11 10 q13 8 22.5 6 q9.5 -2 36.5 -6 l25 -3 l11 -43 q13 -44 16 -48 q3 -4 35 4.5 q32 8.5 82 13.5 l52 6 l-3 40 q-1 41 -2.5 42.5 q-1.5 1.5 -50.5 -7.5 q-40 -5 -69.5 -4.5 q-29.5 0.5 -46.5 7.5 q-17 7 -14 20 q3 10 13.5 12.5 q10.5 2.5 50.5 5.5 q41 3 88.5 10.5 q47.5 7.5 123 10.5 q75.5 3 78.5 4 ZM704 279 q-4 5 -46 5 q-82 -1 -80 -21 q0 -8 -3.5 -8 q-3.5 0 -4.5 -19 q-1 -19 -8 -33 q-9 -17 -4 -23 q5 -6 27 -6 q27 0 52 4.5 q25 4.5 32 -3.5 q19 -24 -32 -34 q-17 -2 -40 -5 q-31 -3 -36.5 -5 q-5.5 -2 -5.5 -11 q0 -12 -8 -29.5 q-8 -17.5 -4 -30.5 q3 -11 9.5 -12.5 q6.5 -1.5 35.5 -1.5 q42 0 45 -8.5 q3 -8.5 0 -16.5 q-3 -6 13 -20 q16 -14 25 -14 q11 0 22 94 q9 70 16 118 q9 63 -5 80 ZM500 133 l-14 0 q-39 -1 -116 -27 q-21 -7 -24 -10.5 q-3 -3.5 -1 -17.5 q2 -18 11 -37 l7 -19 l36 3 q25 3 57.5 9.5 q32.5 6.5 35.5 8.5 q1 2 5 47 l3 43 ZM690 657 q16 5 56 4.5 q40 -0.5 62 -7.5 q43 -13 56 -19 q13 -6 13 -13 q0 -10 -5 -13 q-5 -3 -5 -12 q0 -9 -17.5 -35.5 q-17.5 -26.5 -17.5 -32.5 q0 -7 -26.5 -89 q-26.5 -82 -33.5 -94 q-10 -18 -17 -23 q-9 -5 -27.5 11 q-18.5 16 -27.5 36 q-10 21 -19 36 q-20 27 1 24 q8 0 27 -7 q43 -16 51 3 q5 7 23 65.5 q18 58.5 25 89.5 q4 18 -1 26 q-5 8 -23 12 q-8 1 -10 -0.5 q-2 -1.5 -2 -9.5 q0 -11 -14 -21 q-20 -14 -79 -77 q-29 -31 -65.5 -54 q-36.5 -23 -72 -52.5 q-35.5 -29.5 -40 -29.5 q-4.5 0 -16.5 -10 q-23 -16 -28 -1 q-6 17 81 87 q43 35 94 84 q51 49 60 64 q4 7 -2 9 q-2 0 -14 -2 q-21 -3 -39.5 -16 q-18.5 -13 -31.5 -16 q-10 -1 -12 1.5 q-2 2.5 -5 20.5 q-4 27 3 35.5 q7 8.5 11 16.5 q2 7 9 8 q7 1 30 -1 q37 -4 49 2 ZM254 610 q8 -5 45 14.5 q37 19.5 75 35.5 q38 16 43 18 q12 0 26 -12 q14 -12 21 -26 q9 -21 15.5 -30 q6.5 -9 -2.5 -16 q-9 -7 -20.5 -4.5 q-11.5 2.5 -13.5 -5.5 q-3 -6 -6 -6 q-3 0 -13 6 q-12 7 -38 5.5 q-26 -1.5 -43 -9.5 q-12 -7 -45 -10 q-33 -3 -38.5 -11.5 q-5.5 -8.5 -1.5 -50.5 q10 -84 19 -95 q5 -4 53 18.5 q48 22.5 48 29.5 q0 4 -12 19 q-31 35 11 34 q11 0 28 -3 q22 -4 32 -9 q10 -5 22 -19 q33 -32 14 -32 q-4 0 -4 -8 q0 -8 4 -8 q9 0 5 -7 q-2 -2 -6 -4 q-4 -1 -25 4 q-21 5 -34 10 q-8 3 -45 -30.5 q-37 -33.5 -56 -42.5 q-19 -9 -33 -27.5 q-14 -18.5 -19 -18.5 q-5 0 -26.5 22 q-21.5 22 -21.5 38.5 q0 16.5 -13 42 q-13 25.5 -42 114 q-29 88.5 -32 96.5 q-3 8 7.5 19 q10.5 11 20.5 11 q10 0 23 -9.5 q13 -9.5 19 -9.5 q12 0 59 -33 Z" /><glyph glyph-name="uni79BB" unicode="&#x79bb;" d="M166 158 q-1 23 9 27 q10 4 22.5 1.5 q12.5 -2.5 21 -5 q8.5 -2.5 26 -15.5 q17.5 -13 20 -40.5 q2.5 -27.5 18.5 -74.5 q16 -51 13.5 -63 q-2.5 -12 -29.5 -13 q-19 -3 -39 16.5 q-20 19.5 -34 53.5 q-25 70 -28 113 ZM592 525 q8 4 23 1.5 q15 -2.5 22 -9.5 q7 -9 4 -23 q-3 -14 -15.5 -14 q-12.5 0 -37 -25 q-24.5 -25 -24.5 -29 q0 -4 32 -36.5 q32 -32.5 35 -39.5 q3 -11 10 0 q4 6 4 14 q0 14 7 35 q7 21 13 67 l5 48 l23 7 q21 6 45 -3 q42 -15 15 -38 q-22 -19 -30 -29.5 q-8 -10.5 -15 -31.5 q-8 -31 -18.5 -56 q-10.5 -25 -14.5 -51 q-6 -40 -21 -49 q-10 -4 -24 12 q-11 9 -16 10.5 q-5 1.5 -18 -2.5 q-19 -7 -45 -4 q-36 5 -37 -3 q-2 -4 16 -13 q16 -5 30 -16 l14 -13 l39 8 q31 7 72 8 q41 1 48 -6 q5 -4 12 1 q7 6 30 1.5 q23 -4.5 37 -13.5 q31 -21 17 -65 q-7 -19 -10 -45 q-3 -26 -10.5 -57 q-7.5 -31 -13.5 -71 q-8 -73 -14.5 -106 q-6.5 -33 -14.5 -32 q-3 0 -36.5 34 q-33.5 34 -36.5 50 l-4 17 l19 -12 q30 -20 39.5 -16.5 q9.5 3.5 19.5 35.5 q10 34 12.5 125 q2.5 91 -5.5 110 q-17 41 -57 30 q-19 -6 -34 -6 q-15 0 -60.5 -14.5 q-45.5 -14.5 -62 -17.5 q-16.5 -3 -21 -10 q-4.5 -7 -8 -29.5 q-3.5 -22.5 0.5 -24.5 q4 -3 34 2.5 q30 5.5 40 20.5 q11 19 30.5 28 q19.5 9 35.5 5 q39 -12 43 -44 q4 -19 10.5 -42.5 q6.5 -23.5 3 -31.5 q-3.5 -8 -21.5 -8 q-38 0 -52 36 q-6 14 -10 14 q-4 0 -31.5 -12.5 q-27.5 -12.5 -40 -12.5 q-12.5 0 -25 -8.5 q-12.5 -8.5 -41.5 -19.5 q-77 -28 -94 -39 q-11 -9 -21 -9 q-10 0 -29.5 21 q-19.5 21 -19.5 30 q0 22 43 26 q27 3 39 11 q12 7 24.5 29.5 q12.5 22.5 8.5 26.5 q-5 3 -20 -2 q-24 -9 -59 -9.5 q-35 -0.5 -56 6.5 q-36 12 -39 31 q-1 4 4 8 q7 4 24 4 q17 0 47.5 7 q30.5 7 68.5 14 l38 7 l1 24 q2 24 -1 24 q-10 0 -26 -7 q-16 -7 -16 -11 q0 -9 -7 -11 q-7 -2 -29.5 8 q-22.5 10 -30.5 19 q-18 20 -20 75 q0 43 -49 92 q-31 29 -31 34 q0 5 19 4.5 q19 -0.5 40 -2.5 q14 0 19.5 -3.5 q5.5 -3.5 15.5 -17.5 q13 -21 22.5 -60 q9.5 -39 8.5 -67 l-1 -31 l18 2 q17 0 77.5 20 q60.5 20 84.5 23 l24 4 l-14 9 q-15 9 -27 25 q-18 26 -40 3 q-11 -13 -17 -13 q-6 0 -28 -24 q-17 -17 -36 -27.5 q-19 -10.5 -24 -5.5 q-10 5 50 85 q20 25 20 28.5 q0 3.5 -23 16.5 q-33 19 -47 50 q-6 13 3 13 q18 0 51 -9 q33 -9 42 -16 q16 -12 23 -6 q10 6 20.5 22.5 q10.5 16.5 10.5 26.5 q0 7 3.5 8.5 q3.5 1.5 14.5 -0.5 q17 -1 25 3 ZM437 739 q18 3 46 -0.5 q28 -3.5 40 -10.5 q12 -4 15.5 -9 q3.5 -5 4.5 -16 q3 -43 7 -48 q3 -4 46 -5 q146 -7 161 -21 q20 -21 -8 -27 q-11 -3 -28 -1 q-3 0 -48 7 q-49 5 -103 -5.5 q-54 -10.5 -167 -47.5 q-56 -20 -92.5 -23.5 q-36.5 -3.5 -74.5 7.5 q-21 7 -42.5 18.5 q-21.5 11.5 -21.5 15.5 q0 10 115 22 q33 3 78.5 17 q45.5 14 76.5 20.5 q31 6.5 31 8.5 q0 2 -14 19 q-17 18 -29.5 41 q-12.5 23 -9.5 30 q3 7 17 8 Z" /><glyph glyph-name="uni7C73" unicode="&#x7c73;" d="M647 206 q0 5 5 5 q5 -1 39 -11 q60 -19 73 -35 q5 -8 31 -20.5 q26 -12.5 46 -28.5 q12 -11 15 -17.5 q3 -6.5 3 -22.5 l0 -24 l-27 3 q-43 2 -63 18 q-8 5 -22 7 q-30 3 -31 31 q-1 15 -14.5 35.5 q-13.5 20.5 -28.5 31.5 q-26 17 -26 28 ZM405 210 q20 18 51 -1 q14 -9 14 -17.5 q0 -8.5 -13 -24.5 q-15 -20 -15 -28 q0 -9 -19 -26.5 q-19 -17.5 -29 -17.5 q-17 0 -43.5 -9 q-26.5 -9 -34.5 -19 q-9 -7 -14.5 -4 q-5.5 3 -5.5 15 q0 14 21 39.5 q21 25.5 88 92.5 ZM290 528 q0 7 2.5 8.5 q2.5 1.5 11.5 -0.5 q41 -10 86 -31 q22 -11 32 -18.5 q10 -7.5 17 -20.5 q14 -22 18 -22 q4 0 14 -21 q10 -21 11 -31 q0 -7 -16 -9 q-16 -2 -36.5 0.5 q-20.5 2.5 -32.5 9.5 q-23 12 -65 65 q-42 53 -42 70 ZM764 637 q21 6 56 -6 q28 -8 35 -15.5 q7 -7.5 7 -28.5 q0 -23 -13 -32 q-13 -9 -65.5 -63 q-52.5 -54 -58.5 -54 q-6 0 -27 -12 q-52 -33 -60 -33 q-16 0 8 47 q14 26 17.5 29 q3.5 3 12 20.5 q8.5 17.5 31 47.5 q22.5 30 35.5 63.5 q13 33.5 22 36.5 ZM513 666 q10 5 66 -7 q28 -5 34 -20.5 q6 -15.5 6 -65.5 q0 -56 -5 -82 q-7 -28 -11.5 -67 q-4.5 -39 -2.5 -46 q3 -7 43 -3 l81 6 q40 4 76 -2.5 q36 -6.5 70 -6.5 l45 0 q22 0 26 -25 q3 -15 -9.5 -23 q-12.5 -8 -33.5 -5 l-41 7 q-21 3 -25 6 q-7 5 -37 13 q-30 8 -44 8 q-18 0 -84.5 -10.5 q-66.5 -10.5 -69.5 -13.5 q-4 -6 -9 -83.5 q-5 -77.5 -5 -140.5 q0 -85 -8 -130 q-9 -45 -17 -45 q-6 0 -14 13 q-7 12 -28 21 q-18 8 -48.5 32 q-30.5 24 -38.5 38 q-8 12 -5.5 20 q2.5 8 24.5 -8.5 q22 -16.5 40 -18.5 q12 -2 16.5 -0.5 q4.5 1.5 7.5 9.5 q4 13 6.5 75.5 q2.5 62.5 8.5 127.5 q6 65 1 68 q-2 4 -36 -5 q-34 -9 -69 -22 q-29 -13 -52 -16.5 q-23 -3.5 -43 -10.5 q-141 -50 -207 -19 q-25 11 -46 25 q-38 24 8 29 q41 6 202 34 q88 14 161 23 q73 9 80 14.5 q7 5.5 7 106.5 q0 101 -10 130 q-21 65 -10 70 Z" /><glyph glyph-name="uni7ED3" unicode="&#x7ed3;" d="M753 215 q28 11 93 4 q37 -4 49 -18 q11 -11 12.5 -25 q1.5 -14 -7.5 -23 q-11 -12 -19.5 -45 q-8.5 -33 -9.5 -64 q0 -32 -5 -58 q-5 -26 -12 -29 q-7 -1 -32 26 q-17 16 -24 19.5 q-7 3.5 -15 1.5 q-14 -3 -18.5 -2.5 q-4.5 0.5 -37.5 -10 q-33 -10.5 -69 -14.5 q-18 -1 -26.5 -4 q-8.5 -3 -8.5 -6 q1 -7 -6 -5 q-7 1 -22 8 q-17 8 -29 18 q-12 10 -12 17 q0 7 -12.5 19.5 q-12.5 12.5 -11.5 24 q1 11.5 -8 36.5 q-7 24 -9 50.5 q-2 26.5 4 31.5 q8 9 46 3 q21 -3 58 8.5 q37 11.5 75 20.5 q38 9 57 16 ZM836 184 q-6 10 -30.5 9.5 q-24.5 -0.5 -49.5 -12.5 q-28 -12 -38.5 -13 q-10.5 -1 -47.5 -17.5 q-37 -16.5 -53 -19.5 q-42 -10 -47.5 -27.5 q-5.5 -17.5 15.5 -62.5 q16 -32 20 -37 q4 -5 52.5 2 q48.5 7 60.5 16 q9 4 46 11.5 q37 7.5 55 9.5 l15 1 l3 66 q3 66 -1 74 ZM406 222 q17 10 22 11.5 q5 1.5 7 -4.5 q5 -6 -4 -8 q-8 -5 -6.5 -9 q1.5 -4 9.5 -1 q7 3 8.5 1.5 q1.5 -1.5 -1.5 -10.5 q-7 -22 -24 -39 q-17 -17 -57 -45 q-21 -14 -49 -43 q-28 -29 -28 -38 q0 -5 -13.5 -8 q-13.5 -3 -25.5 -16 q-12 -11 -21 -10 q-9 1 -9 14 q0 13 -4 15 q-14 4 -17.5 19.5 q-3.5 15.5 7.5 30.5 q9 11 15 5.5 q6 -5.5 19.5 3 q13.5 8.5 13.5 12 q0 3.5 12.5 9.5 q12.5 6 68.5 51.5 q56 45.5 77 58.5 ZM220 467 q18 21 60.5 65 q42.5 44 48.5 44 q10 0 30 -15.5 q20 -15.5 26 -26.5 q6 -11 6 -15 q0 -4 -7 -10 q-9 -10 -23.5 -16 q-14.5 -6 -32.5 -23 q-118 -111 -110 -111 q7 0 53.5 17.5 q46.5 17.5 71.5 30.5 q28 12 60 39 q24 18 30.5 21 q6.5 3 14.5 -3 q13 -7 13 -26 q-2 -17 -9.5 -25.5 q-7.5 -8.5 -52.5 -42.5 q-36 -26 -36 -33 q0 -7 -5 -7 q-5 0 -5 -10 q0 -7 -14 -23 q-14 -16 -32 -30 l-7 -7 q0 0 5 0 q10 3 41 15 q31 14 52 13.5 q21 -0.5 21 -16.5 q0 -8 -132 -71 q-38 -18 -57 -31 q-23 -12 -28 -10 q-5 2 -5 24 q0 27 -4.5 34 q-4.5 7 6 24.5 q10.5 17.5 22.5 24.5 q13 5 46 38 q33 33 30 36.5 q-3 3.5 -42 -22.5 q-39 -26 -57.5 -28.5 q-18.5 -2.5 -41.5 -14.5 q-23 -12 -31 -12 q-6 0 -10 12 q-4 12 0 20 q3 9 -7.5 20 q-10.5 11 -13.5 26 q-3 12 -1 16 q2 4 11 10 q18 11 59 46.5 q41 35.5 57 52.5 ZM680 635 q12 6 16.5 6 q4.5 0 17.5 -5 q50 -21 67.5 -37 q17.5 -16 20.5 -44 q4 -24 -3 -39 q-11 -31 28 -31 q20 0 37.5 -14.5 q17.5 -14.5 22.5 -12.5 q5 2 5 -3 q0 -5 -15.5 -5 q-15.5 0 -15.5 -7 q0 -5 -18 -13.5 q-18 -8.5 -41 -12.5 q-17 -3 -19 -7.5 q-2 -4.5 -14 -4.5 q-26 0 -31 -58 q-3 -23 1 -28.5 q4 -5.5 18 2.5 q12 7 75 9 l61 1 l6 -14 q5 -14 -2.5 -19.5 q-7.5 -5.5 -35.5 -6.5 q-31 -2 -49 -7 q-18 -5 -38.5 -5.5 q-20.5 -0.5 -40.5 -7.5 q-20 -7 -43 -13 q-82 -18 -116 -39 q-15 -8 -27 -8 q-12 0 -12 10 q0 7 -14 22 q-11 14 -9 22.5 q2 8.5 19 18.5 q9 5 12 5 q3 0 7 -7 q6 -11 20 -8 q5 1 3 7 q0 3 2.5 6.5 q2.5 3.5 9.5 5.5 q13 5 13 3.5 q0 -1.5 -6 -8.5 q-7 -7 -5.5 -8.5 q1.5 -1.5 16.5 4.5 q14 5 7 10 q-7 5 8 11.5 q15 6.5 27 17.5 q23 21 13 36 q-6 7 -17 2 q-10 -6 -47 -11.5 q-37 -5.5 -46 -11 q-9 -5.5 -23 7 q-14 12.5 -27 20.5 q-22 14 -7 38 q9 11 27 8.5 q18 -2.5 29 -11.5 q7 -4 17.5 -2 q10.5 2 47.5 16 l52 20 l4 24 q7 56 1 147 q-1 15 1 20 q2 5 10 9 Z" /><glyph glyph-name="uni8BF7" unicode="&#x8bf7;" d="M770 324 q16 6 23 4.5 q7 -1.5 17 -8.5 q14 -11 28 -11 q14 0 18.5 -8.5 q4.5 -8.5 2 -74.5 q-2.5 -66 2.5 -93 q5 -27 1 -33 q-11 -11 1 -50 q7 -20 8.5 -63.5 q1.5 -43.5 5.5 -62.5 q12 -48 -2 -66 q-6 -7 -7.5 -7 q-1.5 0 -6.5 7 q-7 10 -8 16 q-1 6 -26 36 q-38 46 -21 42 q4 -2 14 -9 q10 -7 14 -7 q4 0 4 65.5 q0 65.5 -4 67.5 q-6 3 -55 -9 q-49 -12 -64 -7 q-15 5 -20 9 q-1 2 5.5 6 q6.5 4 18 10.5 q11.5 6.5 25 12.5 q13.5 6 28 12 q14.5 6 26.5 8 l29 9 l0 21 q0 21 3 28 q3 7 -4 17 q-5 5 -7.5 5 q-2.5 0 -11.5 -7 q-9 -7 -42 -18 q-33 -11 -60 -15 q-18 -3 -23 -12 q-5 -9 -2 -81 q4 -116 -17 -116 q-5 0 -32 25 q-20 18 -23.5 25 q-3.5 7 -3.5 27 q0 56 10 121 q10 65 21 82 q7 13 23 8 q18 -4 23.5 -11 q5.5 -7 5.5 -26 q0 -26 6 -26 q2 2 5 6 q4 6 45.5 19 q41.5 13 58.5 13 l22 2 l0 28 q-1 30 -6.5 41.5 q-5.5 11.5 -21.5 14.5 q-10 2 -19.5 -2 q-9.5 -4 -32.5 -19 q-40 -27 -52 -32.5 q-12 -5.5 -19 1.5 q-8 8 -2 18 q6 10 45.5 36.5 q39.5 26.5 53.5 30.5 ZM133 323 q44 15 67 -9 q11 -12 11.5 -23.5 q0.5 -11.5 -8.5 -69.5 q-3 -19 -4 -55 q-1 -36 0 -65 q1 -29 4 -29 q8 0 113 158 q20 28 20 12 q0 -17 -19 -51 q-12 -21 -18 -40 l-10 -41 q-5 -20 -30.5 -70 q-25.5 -50 -27.5 -59.5 q-2 -9.5 -23.5 -9.5 q-21.5 0 -41.5 17 l-18 17 l-1 76 q0 74 -1.5 89.5 q-1.5 15.5 -2.5 42 q-1 26.5 -5.5 26.5 q-4.5 0 -25.5 -13 q-19 -12 -51 -13.5 q-32 -1.5 -47 8.5 q-20 12 -10 16 q3 2 4 2 q7 0 10 7 q3 5 51 38 q48 33 64 39 ZM688 722 q5 7 27 1.5 q22 -5.5 34 -15.5 q22 -21 8 -48 q-7 -11 -0.5 -15 q6.5 -4 18.5 4 q10 6 35 9.5 q25 3.5 46 2 q21 -1.5 21 -8 q0 -6.5 -23.5 -17 q-23.5 -10.5 -46.5 -14.5 q-30 -6 -38.5 -12 q-8.5 -6 -10.5 -26 q-4 -56 0 -57 q2 0 9 1 q38 7 69.5 7 q31.5 0 31.5 -8 q0 -4 -20 -24.5 q-20 -20.5 -43 -23.5 l-33 -4 q-9 -1 -17 -17.5 q-8 -16.5 -11 -38.5 l-4 -29 l23 4 q22 3 51 10 q30 8 86 12 q56 4 61 -0.5 q5 -4.5 15.5 -4.5 q10.5 0 17.5 -5 q15 -9 -10 -30 q-25 -20 -42 -12 q-16 7 -80 14 q-22 3 -57 -6.5 q-35 -9.5 -52 -12.5 q-17 -3 -31.5 -13.5 q-14.5 -10.5 -49 -24.5 q-34.5 -14 -49.5 -29 q-19 -17 -78.5 -43 q-59.5 -26 -77.5 -25 q-11 0 -34 13.5 q-23 13.5 -23 19.5 q0 7 46 22 q46 15 80 28 l73 28 q40 15 56 21 q15 4 15.5 9 q0.5 5 -8.5 23 q-10 18 -10 31 q0 6 -2 8.5 q-2 2.5 -6.5 2.5 q-4.5 0 -11.5 -2.5 q-7 -2.5 -19 -9.5 q-68 -35 -86 -30 q-8 2 -25 17 q-17 15 -17 21 q0 3 14 3 q14 0 69.5 26 q55.5 26 68.5 29.5 q13 3.5 19 8.5 q3 4 4.5 23 q1.5 19 1.5 36 q0 17 -3 15 q-6 -1 -18.5 -4 q-12.5 -3 -26 -12.5 q-13.5 -9.5 -55.5 -25.5 q-29 -9 -37.5 -10.5 q-8.5 -1.5 -19.5 3.5 q-14 7 -27.5 10 q-13.5 3 -25.5 13 l-11 10 l19 2 q48 9 125 30.5 q77 21.5 81 28.5 q3 4 8 54.5 q5 50.5 7 56.5 ZM166 740 q2 7 6.5 7 q4.5 0 10.5 -7 q6 -7 13 -4 q7 3 7 -3 q0 -6 28 -27 q28 -21 36 -36 q4 -8 11 -74 q7 -66 3 -69 q-1 -1 -24.5 -2 q-23.5 -1 -27 -5.5 q-3.5 -4.5 -9 0 q-5.5 4.5 -17.5 7.5 q-12 3 -16 11.5 q-4 8.5 -5 33.5 q-2 17 -7 24 q-5 7 -9 28 q-12 70 -6.5 77 q5.5 7 6 20 q0.5 13 0.5 19 Z" /><glyph glyph-name="uni8FBE" unicode="&#x8fbe;" d="M669 240 q14 1 26.5 -3.5 q12.5 -4.5 41.5 -22.5 q17 -13 25.5 -23.5 q8.5 -10.5 17.5 -30.5 q16 -38 18 -54 q2 -16 -7 -24 q-7 -6 -13.5 -6.5 q-6.5 -0.5 -26.5 3.5 q-29 8 -39 22 q-15 20 -31 53.5 q-16 33.5 -23 54.5 l-5 29 l16 2 ZM47 333 q5 7 49 4 q44 -3 64 -11.5 q20 -8.5 27.5 -21 q7.5 -12.5 7.5 -36.5 q0 -20 27 -83 q27 -63 31 -79 q8 -38 57 -73 q24 -16 24 -24 q0 -8 30 -4 q11 1 34 6 q27 6 133 6 q106 0 161 -14 q85 -21 179 -6 q34 6 45 6 q11 0 23 -6 q17 -9 14.5 -19.5 q-2.5 -10.5 -23.5 -18.5 q-21 -8 -30 -18 q-8 -7 -57.5 -15.5 q-49.5 -8.5 -87.5 -8.5 q-58 0 -116 32 q-28 19 -107.5 20.5 q-79.5 1.5 -182.5 -15.5 q-42 -6 -104.5 -5.5 q-62.5 0.5 -88.5 -5.5 l-23 -6 l-24 25 q-26 24 -25 39 q2 9 6.5 11 q4.5 2 21.5 2 q25 2 37 -5.5 q12 -7.5 39 -7.5 q27 0 56.5 -5.5 q29.5 -5.5 43.5 -2.5 q11 2 3 8 q-4 2 -19 10 q-26 14 -42 35.5 q-16 21.5 -35 70.5 q-43 109 -74 151 q-12 16 -35 27 q-20 11 -31 21 q-11 10 -8 17 ZM101 581 q17 16 96 -19 q48 -23 48 -31.5 q0 -8.5 -7 -8.5 q-2 0 -3.5 -5 q-1.5 -5 0 -11.5 q1.5 -6.5 5.5 -9.5 q6 -8 1.5 -15.5 q-4.5 -7.5 -16.5 -7.5 q-18 0 -51 18.5 q-33 18.5 -53 41.5 q-20 21 -23.5 30.5 q-3.5 9.5 3.5 17.5 ZM524 616 q-6 8 -12 32.5 q-6 24.5 -3.5 30 q2.5 5.5 10.5 -0.5 q8 -6 15 -5.5 q7 0.5 57 -22.5 q31 -15 41.5 -23 q10.5 -8 16.5 -24 q19 -38 4 -50 q-10 -8 -14 -48 q-2 -36 6 -43.5 q8 -7.5 56 -15.5 q45 -8 53 -15 q4 -5 2.5 -10.5 q-1.5 -5.5 -13.5 -18.5 q-31 -34 -100 -53 q-21 -6 -28 -14 q-7 -8 -15 -41 q-7 -25 -15 -51 q-8 -26 -4.5 -61 q3.5 -35 -3.5 -69 l-8 -33 l-39 -8 q-38 -5 -58 -12 q-20 -5 -50 -4 q-8 0 -19 -1 q-7 -2 -11 3.5 q-4 5.5 -2 13.5 q2 8 9 16 q11 14 57 45 q42 28 56 51 q14 23 18 73 q4 37 -2 41.5 q-6 4.5 -30 -12.5 q-33 -22 -59 -10 q-9 7 -23 8 q-29 7 -53.5 26 q-24.5 19 -24.5 38 q0 6 20.5 12 q20.5 6 32.5 3 q12 -3 59 14 q61 22 78.5 29.5 q17.5 7.5 18.5 18.5 q11 39 2.5 105 q-8.5 66 -25.5 86 Z" /><glyph glyph-name="uni9080" unicode="&#x9080;" d="M87 313 q0 18 2 20.5 q2 2.5 13 1.5 q10 -1 14 -5.5 q4 -4.5 9 -18.5 q7 -22 7 -66 q0 -32 7.5 -78 q7.5 -46 15.5 -62 q7 -11 25.5 -25.5 q18.5 -14.5 25.5 -14.5 q15 -2 23.5 -17 q8.5 -15 1.5 -28 q-3 -4 -19.5 -3.5 q-16.5 0.5 -29.5 6.5 q-8 3 -11.5 2 q-3.5 -1 -3.5 3 q0 7 8 17 q6 6 3.5 11 q-2.5 5 -20.5 21 q-42 41 -42 62 q0 13 -10 41 q-21 54 -19 133 ZM788 447 q39 14 49.5 13.5 q10.5 -0.5 10.5 -17.5 q0 -13 -3.5 -16.5 q-3.5 -3.5 -25.5 -7.5 q-31 -7 -43.5 -14 q-12.5 -7 -52.5 -23 q-40 -16 -45.5 -21 q-5.5 -5 -16.5 -1.5 q-11 3.5 -11 10.5 q0 6 -14 17 q-16 10 -13 19 q3 9 23 9.5 q20 0.5 30 -4.5 q10 -5 41.5 8.5 q31.5 13.5 70.5 27.5 ZM91 588 q28 7 73 -12 l19 -11 q-1 -2 -7 -2 q-15 0 -15 -7 q1 -3 6 -5 q5 -5 -3.5 -14 q-8.5 -9 -5.5 -14 q3 -5 -2 -8.5 q-5 -3.5 -12 -19.5 q-7 -17 -12 -17 q-5 0 -10 17 q-6 18 -28 43 q-35 42 -3 50 ZM690 632 q2 1 31 -2.5 q29 -3.5 36 -6.5 l14 -5 l-9 -18 q-12 -20 -26 -52 q-21 -45 -41 -76 q-20 -31 -30 -31 q-1 2 -1 5.5 q0 3.5 1 11 q1 7.5 4 16.5 q7 30 14 93 q7 63 7 65 ZM473 700 l16 -14 q11 -11 15 -25.5 q4 -14.5 0.5 -26 q-3.5 -11.5 -14.5 -11.5 q-7 0 -28 -12 q-38 -23 -59 -18 q-3 1 -4 -2.5 q-1 -3.5 1 -13.5 q3 -15 3 -42 q0 -25 8.5 -26.5 q8.5 -1.5 60.5 11.5 q49 12 61 10 q9 -2 10.5 2.5 q1.5 4.5 1.5 27.5 q0 23 -2.5 29 q-2.5 6 -10.5 9 q-24 11 4 17 l35 6 q17 4 25.5 -8 q8.5 -12 2.5 -19 q-12 -14 -19 -102 q-5 -52 -10 -80 q-13 -59 -7 -60 q1 0 4 0 q10 1 22 0 q7 0 8.5 -3 q1.5 -3 0.5 -14 q-4 -17 -11 -25 q-9 -9 -6 -11 q3 -2 18 0 q18 1 27.5 1.5 q9.5 0.5 4.5 13.5 q-1 8 1 9.5 q2 1.5 13 -1.5 q14 -1 23.5 -9.5 q9.5 -8.5 27.5 -32.5 l12 -16 l17 25 q23 36 28.5 41 q5.5 5 20.5 -2 q20 -11 20 -23.5 q0 -12.5 -20 -43.5 q-21 -30 -19 -41 q2 -11 33 -49 q25 -31 34.5 -42.5 q9.5 -11.5 32.5 -18.5 q38 -10 66 -27.5 q28 -17.5 25 -30.5 q-2 -4 -18.5 -3.5 q-16.5 0.5 -25.5 6.5 q-10 4 -48.5 9.5 q-38.5 5.5 -58.5 15.5 q-14 7 -29.5 22.5 q-15.5 15.5 -15.5 22.5 q0 8 -17.5 34 q-17.5 26 -21.5 26 q-8 0 -25.5 -15.5 q-17.5 -15.5 -24 -15.5 q-6.5 0 -11.5 -9 q-9 -19 -41 -24 q-14 -3 -14 3 q0 7 19 32.5 q19 25.5 41 49.5 q31 34 30.5 38 q-0.5 4 -12.5 17 q-8 8 -13.5 10 q-5.5 2 -23.5 1 q-19 -3 -23 -5.5 q-4 -2.5 -7 -14.5 q-3 -18 -11 -20 q-8 -2 -15 -7 q-7 -5 -21 -10 q-28 -12 2 -17 q34 -6 21 -31 q-8 -15 -8 -23.5 q0 -8.5 -7.5 -21 q-7.5 -12.5 -5 -20.5 q2.5 -8 -3.5 -14 q-6 -6 -9.5 -19 q-3.5 -13 -10.5 -38 q-7 -25 -3 -31 q7 -8 101 -15 q47 -4 57 -10 q31 -17 202 -11 q46 1 55.5 0 q9.5 -1 11.5 -7 q1 -11 -8.5 -17.5 q-9.5 -6.5 -26.5 -6.5 q-18 0 -40.5 -9.5 q-22.5 -9.5 -92.5 -19.5 q-69 -10 -99.5 -5 q-30.5 5 -89.5 37 q-14 7 -26.5 7 q-12.5 0 -40.5 15 q-21 12 -34 14 q-13 2 -49 2 q-55 0 -109 -10 q-146 -27 -200 -17 q-27 6 -51.5 8.5 q-24.5 2.5 -42 19 q-17.5 16.5 -14.5 19 q3 2.5 24.5 9 q21.5 6.5 34.5 -3.5 q15 -11 86.5 -17.5 q71.5 -6.5 99.5 2.5 q50 14 168 18 q71 3 72 4 q1 1 -19 28 q-38 50 -28 59 q3 3 19.5 -10.5 q16.5 -13.5 21.5 -13.5 q5 0 16.5 45.5 q11.5 45.5 8.5 52.5 q-3 8 -10.5 8 q-7.5 0 -14.5 -6 q-7 -6 -7 -14.5 q0 -8.5 -17 -21.5 q-66 -49 -73 -49 q-6 0 -15 -10.5 q-9 -10.5 -42 -31.5 q-61 -40 -61 -22 q0 10 18.5 31.5 q18.5 21.5 42.5 42.5 q32 28 42.5 38 q10.5 10 47.5 40 q37 30 50.5 48 q13.5 18 24.5 31 q17 18 7 18 q-3 0 -9 -3 q-9 -4 -65 -18 q-124 -29 -150 -39 q-21 -7 -39.5 -7.5 q-18.5 -0.5 -23.5 6.5 q-7 7 -14 7 q-7 0 -10 9 q-3 9 -11 19 q-7 7 -4.5 11 q2.5 4 12.5 -2 q7 -4 52.5 1 q45.5 5 91.5 15 q35 8 58.5 7.5 q23.5 -0.5 52.5 3.5 q41 4 20 22 q-6 5 -16 23 q-10 18 -11 25 q0 4 -5 4 q-5 0 -30 -1 q-17 0 -21 -2 q-4 -2 -4 -8 q0 -22 -18 -10 q-6 6 -16.5 55.5 q-10.5 49.5 -10.5 80.5 q-1 18 -8 63 q-6 32 -9.5 80.5 q-3.5 48.5 -0.5 52.5 q3 4 14 -3 q11 -7 22 -17.5 q11 -10.5 11 -15.5 q0 -9 41 32 l39 40 ZM547 455 q3 35 -2 38.5 q-5 3.5 -41 -4.5 q-41 -8 -73 -7 l-25 3 l-1 -55 l-2 -54 l18 2 q20 5 68.5 18 q48.5 13 51 16 q2.5 3 6.5 43 Z" /><glyph glyph-name="uni97F5" unicode="&#x97f5;" d="M333 230 q54 16 93 3 q42 -14 38 -43 q-15 -91 -17 -115 l-4 -83 q-4 -61 2 -73 q4 -7 2.5 -8 q-1.5 -1 -11.5 1 q-14 3 -17.5 6.5 q-3.5 3.5 2.5 69.5 q8 106 -11 104 q-12 -2 -75 -24.5 q-63 -22.5 -67 -26.5 q-8 -7 -3 -31 q6 -28 9.5 -30.5 q3.5 -2.5 21.5 5.5 q24 10 57 15 q33 5 40 -1 q7 -7 6 -14 q-1 -7 -9 -10 q-10 -2 -10 -8 q0 -6 -21.5 -12 q-21.5 -6 -48.5 -8 q-22 -2 -24 -8 q-2 -6 -8 -6 q-6 0 -11 -7 q-14 -18 -35 19 q-13 23 -18 53 q-6 29 -16 58 q-10 29 -15 65 q-6 31 -2.5 41.5 q3.5 10.5 20.5 11.5 q13 2 55 24 q42 22 77 32 ZM401 201 q-10 12 -28 6 q-18 -6 -81 -43 l-48 -29 l0 -28 q0 -27 1.5 -27 q1.5 0 62 20.5 q60.5 20.5 83.5 26.5 l26 5 l-3 30 q-4 30 -13 39 ZM607 250 q6 7 13.5 6 q7.5 -1 31.5 -10 q28 -10 47 -30 q14 -14 17 -21 q3 -7 2 -24 q-2 -26 -19.5 -59 q-17.5 -33 -15.5 -36 q2 -3 54 13.5 q52 16.5 58 10.5 q5 -6 -7 -20.5 q-12 -14.5 -36.5 -30 q-24.5 -15.5 -50.5 -25.5 q-46 -16 -53 -2 q0 2 1 5 q3 7 -7 13 q-13 7 -13 21 q0 14 13 25 q13 13 12 22 q-1 9 -14 32 q-13 23 -25 63.5 q-12 40.5 -8 46.5 ZM345 451 q44 24 60 27 q16 3 38 -6 q10 -2 19 -20.5 q9 -18.5 5 -26.5 q-11 -30 -38 -62 q-11 -11 -8 -14 q3 -3 45 2 q29 4 37.5 2.5 q8.5 -1.5 15.5 -7.5 q7 -7 7 -9.5 q0 -2.5 -10 -9.5 q-27 -20 -85 -21 q-23 0 -43 -8 q-20 -8 -48 -16 q-20 -6 -65 -29 q-45 -23 -67 -37 q-18 -12 -57.5 -26 q-39.5 -14 -50.5 -13 q-35 6 -45.5 12 q-10.5 6 -13.5 23 q-1 10 1 12 q2 2 12 2 q41 0 109 31 q38 17 93.5 38.5 q55.5 21.5 70.5 24.5 q13 1 19 9 q6 8 22 40 q35 71 18 74 q-9 0 -51 -40 q-42 -40 -65 -71 q-17 -22 -27.5 -18 q-10.5 4 -23.5 6 q-15 4 -30.5 20 q-15.5 16 -15.5 27 q0 14 5 17.5 q5 3.5 5 16.5 q0 21 39 1 l20 -9 l22 14 q22 14 81 44 ZM692 649 q30 10 77 -37 l30 -28 l-6 -19 q-7 -18 -34 -45.5 q-27 -27.5 -44.5 -55 q-17.5 -27.5 -35 -45 q-17.5 -17.5 -17.5 -22 q0 -4.5 -13.5 -25 q-13.5 -20.5 -10 -24 q3.5 -3.5 28.5 7.5 q136 59 193 44 q26 -7 44 -7 q31 0 47 -38.5 q16 -38.5 3 -83.5 q-5 -17 -8 -88 q-7 -163 -12.5 -212.5 q-5.5 -49.5 -18.5 -60.5 q-17 -13 -17 4 q0 10 -5 12.5 q-5 2.5 -5 19.5 q0 17 10 20 q6 1 7.5 28.5 q1.5 27.5 1.5 160.5 q0 11 0 32 q-2 131 -7.5 153.5 q-5.5 22.5 -39.5 24.5 q-5 1 -8 1 q-25 1 -40.5 -3 q-15.5 -4 -86.5 -39 q-35 -15 -62 -22 q-17 -5 -24.5 -5 q-7.5 0 -21.5 7 q-27 12 -39.5 36.5 q-12.5 24.5 0.5 38.5 q8 8 24 34.5 q16 26.5 20 39.5 q6 17 20 53 q13 31 27 75.5 q14 44.5 14 53.5 q0 10 9 14 ZM274 664 q0 21 2 26 q2 5 9 5 q13 0 43.5 -19.5 q30.5 -19.5 41.5 -33.5 q14 -17 14 -40 q0 -23 -4.5 -26 q-4.5 -3 -4.5 -10.5 q0 -7.5 30.5 -4 q30.5 3.5 40.5 -5.5 q10 -9 10 -14 q0 -5 -20.5 -14 q-20.5 -9 -38.5 -12 q-20 -2 -48.5 -12.5 q-28.5 -10.5 -39.5 -18.5 q-7 -6 -42 -19 q-35 -13 -46.5 -21 q-11.5 -8 -36 0 q-24.5 8 -38.5 20 q-11 9 -11.5 11.5 q-0.5 2.5 6.5 11.5 q8 10 12 8 q3 -3 76.5 17 q73.5 20 79.5 24 q1 0 -11 22 q-24 41 -24 105 Z" /><glyph glyph-name="zero" unicode="0" d="M217 132 q-6 -43 -31 -51 q-25 -8 -61 25 q-47 43 -65 161.5 q-18 118.5 -2 182.5 q8 34 13.5 44 q5.5 10 32.5 31 q52 44 111 -14 q31 -31 46 -72 q15 -41 13 -85 q-2 -44 -12 -86.5 q-10 -42.5 -28 -86.5 q0 0 -3 -7 q-3 -7 -6.5 -17.5 q-3.5 -10.5 -7.5 -24.5 ZM155 148 q34 32 54 99 q20 67 15 134 q-5 67 -39 93 q-16 11 -26 13.5 q-10 2.5 -20 -7.5 q-11 -11 -15.5 -32.5 q-4.5 -21.5 -9 -55 q-4.5 -33.5 -4.5 -38.5 q-6 -38 8.5 -103.5 q14.5 -65.5 36.5 -102.5 Z" /><glyph glyph-name="one" unicode="1" d="M86 226 q-2 39 -3.5 98 q-1.5 59 -2.5 90 q-1 31 -7 71 q-6 40 -18 73 q0 3 0.5 12.5 q0.5 9.5 1 12 q0.5 2.5 2.5 7 q2 4.5 6.5 6 q4.5 1.5 13.5 1.5 q44 0 55 -118 q8 -93 8 -324 q0 -8 1.5 -22 q1.5 -14 1.5 -23.5 q0 -9.5 -2 -19 q-2 -9.5 -9 -13.5 q-7 -4 -19 -3 q-12 1 -20.5 9.5 q-8.5 8.5 -11.5 24 q-3 15.5 -4.5 28 q-1.5 12.5 0.5 34 q2 21.5 3.5 30 q1.5 8.5 3.5 26.5 Z" /><glyph glyph-name="two" unicode="2" d="M78 345 q-31 27 -27.5 65 q3.5 38 38.5 69 q39 35 134 76 q31 14 59.5 9.5 q28.5 -4.5 51.5 -19 q23 -14.5 35.5 -41 q12.5 -26.5 9.5 -57.5 q-5 -60 -46 -105 q-2 -3 -82 -73 q-51 -45 -68 -91 q35 -14 91.5 -19.5 q56.5 -5.5 90.5 -4.5 q34 1 57 -1 q40 -3 68 -16 q-2 -11 -6.5 -19 q-4.5 -8 -12.5 -13 q-8 -5 -15 -8.5 q-7 -3.5 -18.5 -4.5 q-11.5 -1 -20 -2.5 q-8.5 -1.5 -23 -0.5 q-14.5 1 -23.5 1.5 q-9 0.5 -26 2.5 q-17 2 -25 2 l-17 2 q-33 3 -82.5 -4.5 q-49.5 -7.5 -90.5 -9.5 q-21 0 -29.5 13 q-8.5 13 -6 32.5 q2.5 19.5 7.5 40.5 q8 26 23 50 q15 24 35.5 44.5 q20.5 20.5 38.5 35 q18 14.5 45 35 q27 20.5 42 33.5 q16 14 29.5 36 q13.5 22 15.5 44 q2 24 -11.5 38.5 q-13.5 14.5 -38.5 16.5 q-25 2 -48 -4 q-23 -6 -39.5 -16.5 q-16.5 -10.5 -34.5 -29.5 q-18 -19 -28.5 -33 q-10.5 -14 -27.5 -38.5 q-17 -24.5 -25 -35.5 Z" /><glyph glyph-name="seven" unicode="7" d="M379 439 q-21 9 -58.5 7.5 q-37.5 -1.5 -67.5 -6.5 q-30 -5 -68 -10.5 q-38 -5.5 -59 -5.5 q-3 0 -11.5 0 q-8.5 0 -12 0 q-3.5 0 -11 0 q-7.5 0 -10 1 q-2.5 1 -8 2.5 q-5.5 1.5 -8 4 q-2.5 2.5 -5.5 5.5 q-3 3 -4 7.5 q-1 4.5 -1 10.5 q0 10 8 17 q8 7 23 11 q15 4 28.5 5.5 q13.5 1.5 32.5 3 q19 1.5 26 3.5 q83 12 250 7 q40 -1 35 -47 q-2 -28 -80 -150 l-16 -25 l1 1 q-5 -14 -15.5 -46 q-10.5 -32 -19.5 -55.5 q-9 -23.5 -22.5 -49.5 q-13.5 -26 -31 -40 q-17.5 -14 -37.5 -14 q-2 45 16 96 q18 51 41 90.5 q23 39.5 49 89.5 q26 50 36 87 Z" /><glyph glyph-name="comma" unicode="," d="M101 97 q-7 70 9 97 q4 0 5.5 0 q1.5 0 3.5 -1 q2 -1 3 -2 q1 -1 2 -2.5 q1 -1.5 2 -2.5 q15 -2 28 -29 q13 -27 12 -50 q-1 -67 -49.5 -130.5 q-48.5 -63.5 -108.5 -89.5 q4 20 20 48.5 q16 28.5 33 52 q17 23.5 29.5 54 q12.5 30.5 10.5 55.5 Z" /><glyph glyph-name="exclam" unicode="!" d="M129 74 q-15 -1 -24.5 10.5 q-9.5 11.5 -11.5 27.5 q0 11 8.5 18.5 q8.5 7.5 18.5 7.5 q12 1 21 -12.5 q9 -13.5 9 -27.5 q0 -24 -21 -24 ZM134 273 q-24 4 -37 19.5 q-13 15.5 -16 41.5 q-3 26 -2 50 q1 24 4 58 q3 34 3 51 q0 57 4.5 92.5 q4.5 35.5 19.5 67.5 q4 -3 15 -8 q11 -5 14.5 -7.5 q3.5 -2.5 7 -9.5 q3.5 -7 2.5 -19 q-1 -18 -9.5 -60 q-8.5 -42 -7.5 -63 q0 -22 4.5 -73.5 q4.5 -51.5 4.5 -82.5 q0 -31 -7 -57 Z" /><glyph glyph-name="slash" unicode="/" d="M98 35 q-16 0 -26 9 q-10 9 -9 22 q0 12 9 30 q9 18 18 31.5 q9 13.5 24.5 33.5 q15.5 20 19.5 25 q6 10 27.5 39.5 q21.5 29.5 35 49.5 q13.5 20 30.5 47 q17 27 26 46 q-1 2 18 29.5 q19 27.5 41.5 62.5 q22.5 35 26.5 51 q5 18 14 27.5 q9 9.5 21 9.5 q14 -1 19.5 -17.5 q5.5 -16.5 1.5 -35.5 q-7 -27 -42 -82.5 q-35 -55.5 -38 -60.5 q-13 -24 -124 -163 q-28 -35 -26 -35 q-7 -11 -19 -51 q-21 -68 -48 -68 Z" /><glyph glyph-name="uniFF0C" unicode="&#xff0c;" d="M514 97 q-7 70 9 97 q4 0 5.5 0 q1.5 0 3.5 -1 q2 -1 3 -2 q1 -1 2 -2.5 q1 -1.5 2 -2.5 q15 -2 28 -29 q13 -27 12 -50 q-1 -67 -49.5 -130.5 q-48.5 -63.5 -108.5 -89.5 q4 20 20 48.5 q16 28.5 33 52 q17 23.5 29.5 54 q12.5 30.5 10.5 55.5 Z" /><glyph glyph-name="ampersand" unicode="&amp;" d="M175 -49 q-24 0 -26.5 40 q-2.5 40 3.5 87 q6 47 4 52 q0 39 -8 72 q-42 -10 -48 -10 q-26 0 -39.5 12 q-13.5 12 -9.5 28.5 q4 16.5 23 28.5 q12 8 12.5 17 q0.5 9 -5.5 23.5 q-6 14.5 -6 24.5 q0 16 11.5 29 q11.5 13 28 22.5 q16.5 9.5 33.5 19 q17 9.5 28.5 22 q11.5 12.5 11.5 28.5 q0 9 -3 22 q-3 13 -5 23 q-2 10 -1 21.5 q1 11.5 8 18.5 l17 18 q5 -10 23 -8 q5 -3 7 -9.5 q2 -6.5 2 -11.5 q0 -5 0 -16 q0 -11 0 -14 q0 -7 -0.5 -25 q-0.5 -18 -0.5 -27.5 q0 -9.5 1.5 -22.5 q1.5 -13 6 -21.5 q4.5 -8.5 12.5 -12.5 q3 -2 44 -22 q-4 -9 -16.5 -19.5 q-12.5 -10.5 -26.5 -19 q-14 -8.5 -25 -21.5 q-11 -13 -11 -27 q39 -1 47 0 l16 -16 q-1 -1 -4 -3.5 q-3 -2.5 -4 -5 q-1 -2.5 0 -6.5 q-43 -6 -61 -33 q-18 -27 -18 -80 q0 -13 2.5 -48.5 q2.5 -35.5 2.5 -63 q0 -27.5 -6 -43.5 q-7 -23 -20 -23 ZM133 336 q4 0 9 0 q5 0 8 0 q3 0 7 1 q4 1 5 3 q1 2 2.5 5 q1.5 3 -0.5 9 l0 14 q-18 -13 -31 -32 ZM124 249 q6 0 9.5 -0.5 q3.5 -0.5 7 0.5 q3.5 1 5.5 1.5 q2 0.5 5.5 3 q3.5 2.5 4 3.5 q0.5 1 4 4 q3.5 3 4.5 4 q-8 -1 -10.5 -2 q-2.5 -1 -6.5 -2 q-4 -1 -5.5 -2 q-1.5 -1 -6.5 -4 q-5 -3 -11 -6 Z" /></font>
</defs>
</svg>
